<svg id="svg" version="1.1" xmlns="http://www.w3.org/2000/svg" xmlns:xlink="http://www.w3.org/1999/xlink" width="400" height="113.18602993585175" viewBox="0, 0, 400,113.18602993585175"><g id="svgg"><path id="path0" d="M111.000 44.583 C 110.867 44.743,110.499 44.833,109.980 44.833 C 109.532 44.833,109.167 44.908,109.167 45.000 C 109.167 45.092,108.834 45.167,108.427 45.167 C 108.019 45.167,107.640 45.242,107.583 45.333 C 107.527 45.425,107.316 45.502,107.115 45.505 C 106.914 45.508,106.604 45.621,106.426 45.755 C 106.249 45.890,105.986 46.000,105.843 46.001 C 105.307 46.003,103.785 47.711,103.080 49.101 C 102.593 50.063,102.799 52.123,103.417 52.469 C 103.692 52.624,103.977 52.844,104.050 52.958 C 104.141 53.100,104.670 53.167,105.707 53.167 C 107.964 53.167,108.732 52.315,107.762 50.887 C 107.074 49.875,107.321 49.729,109.901 49.623 C 113.565 49.473,117.209 49.660,117.458 50.011 C 117.603 50.217,117.979 50.332,118.708 50.397 C 120.940 50.594,121.588 50.710,121.717 50.934 C 121.790 51.062,122.104 51.167,122.415 51.167 C 122.726 51.167,123.020 51.231,123.068 51.309 C 123.117 51.387,123.611 51.499,124.166 51.557 C 124.837 51.627,125.297 51.775,125.536 51.998 C 125.734 52.182,126.103 52.333,126.355 52.333 C 126.607 52.333,126.860 52.408,126.917 52.500 C 126.973 52.592,127.156 52.667,127.323 52.667 C 127.489 52.667,127.719 52.779,127.833 52.917 C 127.947 53.054,128.219 53.167,128.437 53.167 C 128.655 53.167,128.833 53.232,128.833 53.312 C 128.833 53.392,129.121 53.503,129.472 53.560 C 129.823 53.616,130.247 53.813,130.414 53.997 C 130.582 54.182,130.838 54.339,130.984 54.346 C 131.130 54.352,131.475 54.498,131.750 54.670 C 132.646 55.228,133.155 55.471,133.665 55.583 C 133.941 55.644,134.167 55.800,134.167 55.931 C 134.167 56.071,134.473 56.250,134.917 56.369 C 135.329 56.479,135.667 56.660,135.667 56.771 C 135.667 56.993,136.667 57.667,136.996 57.667 C 137.109 57.667,137.350 57.854,137.530 58.083 C 137.710 58.313,137.959 58.500,138.083 58.500 C 138.206 58.500,138.525 58.706,138.790 58.958 C 139.055 59.210,139.550 59.627,139.890 59.885 C 140.229 60.143,140.464 60.423,140.412 60.508 C 140.359 60.593,140.421 60.623,140.548 60.574 C 140.687 60.521,141.189 60.894,141.786 61.492 C 142.338 62.046,142.912 62.500,143.062 62.500 C 143.211 62.500,143.334 62.594,143.334 62.708 C 143.334 62.823,143.971 63.592,144.748 64.417 C 145.526 65.242,146.163 66.002,146.164 66.107 C 146.166 66.212,146.279 66.341,146.417 66.394 C 146.554 66.446,146.667 66.591,146.667 66.715 C 146.667 66.839,146.854 67.103,147.083 67.302 C 147.313 67.501,147.500 67.768,147.500 67.895 C 147.500 68.022,147.605 68.213,147.734 68.320 C 147.863 68.427,148.209 68.999,148.504 69.591 C 148.798 70.182,149.098 70.667,149.171 70.667 C 149.244 70.667,149.355 70.967,149.417 71.333 C 149.479 71.700,149.598 72.000,149.681 72.000 C 149.765 72.000,149.833 72.188,149.833 72.417 C 149.833 72.646,149.892 72.833,149.963 72.833 C 150.034 72.833,150.189 73.377,150.306 74.042 C 150.423 74.706,150.596 75.662,150.691 76.167 C 150.963 77.615,150.441 81.758,149.958 81.972 C 149.890 82.003,149.833 82.136,149.833 82.267 C 149.833 82.839,147.155 86.000,146.671 86.000 C 146.604 86.000,146.346 86.188,146.099 86.417 C 145.852 86.646,145.578 86.833,145.491 86.833 C 145.404 86.833,145.333 86.908,145.333 87.000 C 145.333 87.092,145.187 87.167,145.008 87.167 C 144.579 87.167,143.784 87.521,143.617 87.788 C 143.543 87.905,143.333 88.000,143.149 88.000 C 142.468 88.000,141.333 88.377,141.333 88.603 C 141.333 88.764,141.112 88.833,140.597 88.833 C 140.156 88.833,139.833 88.917,139.792 89.042 C 139.692 89.342,129.641 89.339,129.541 89.039 C 129.503 88.926,129.366 88.833,129.236 88.833 C 129.038 88.833,129.000 88.059,129.000 84.000 C 129.000 80.889,128.941 79.167,128.833 79.167 C 128.732 79.167,128.667 78.417,128.667 77.250 L 128.667 75.333 130.333 75.333 C 131.333 75.333,132.000 75.400,132.000 75.500 C 132.000 75.593,132.452 75.667,133.023 75.667 C 133.758 75.667,134.100 75.740,134.237 75.927 C 134.352 76.084,134.917 76.261,135.672 76.375 C 136.356 76.479,136.962 76.629,137.017 76.710 C 137.114 76.851,137.906 77.095,138.875 77.283 C 139.127 77.331,139.333 77.438,139.333 77.519 C 139.333 77.600,139.446 77.667,139.583 77.667 C 139.721 77.667,139.833 77.773,139.833 77.903 C 139.833 78.033,139.927 78.177,140.042 78.223 C 140.208 78.290,140.208 78.310,140.042 78.320 C 139.927 78.327,139.833 78.414,139.833 78.512 C 139.833 78.772,139.203 79.294,138.500 79.617 C 137.703 79.982,137.520 81.389,138.234 81.661 C 138.454 81.744,138.683 81.892,138.744 81.990 C 138.921 82.276,141.428 82.215,141.726 81.917 C 141.864 81.779,142.057 81.667,142.155 81.667 C 142.253 81.667,142.333 81.592,142.333 81.500 C 142.333 81.408,142.483 81.333,142.667 81.333 C 142.850 81.333,143.000 81.255,143.000 81.160 C 143.000 80.967,143.219 80.680,143.810 80.096 C 144.068 79.840,144.233 79.443,144.290 78.937 C 144.338 78.513,144.442 78.167,144.522 78.167 C 144.601 78.167,144.667 77.754,144.667 77.250 C 144.667 76.746,144.601 76.333,144.522 76.333 C 144.442 76.333,144.337 75.980,144.288 75.548 C 144.230 75.028,144.082 74.668,143.850 74.480 C 143.657 74.324,143.500 74.088,143.500 73.955 C 143.500 73.822,143.313 73.573,143.083 73.400 C 142.854 73.228,142.667 73.025,142.667 72.949 C 142.667 72.788,142.239 72.333,142.088 72.333 C 142.032 72.333,141.821 72.180,141.620 71.993 C 141.195 71.597,140.382 71.167,140.058 71.167 C 139.934 71.167,139.833 71.092,139.833 71.000 C 139.833 70.908,139.651 70.833,139.429 70.833 C 139.206 70.833,138.911 70.721,138.774 70.583 C 138.636 70.446,138.293 70.333,138.012 70.333 C 137.730 70.333,137.500 70.258,137.500 70.167 C 137.500 70.075,137.232 70.000,136.905 70.000 C 136.577 70.000,136.197 69.887,136.060 69.750 C 135.905 69.595,135.496 69.500,134.988 69.500 C 134.536 69.500,134.167 69.425,134.167 69.333 C 134.167 69.229,133.125 69.167,131.375 69.167 L 128.583 69.167 128.635 67.356 C 128.677 65.887,128.637 65.495,128.427 65.284 C 128.240 65.097,128.167 64.691,128.167 63.845 C 128.167 63.197,128.102 62.667,128.023 62.667 C 127.944 62.667,127.840 62.229,127.791 61.694 C 127.743 61.158,127.629 60.577,127.538 60.402 C 127.447 60.227,127.270 59.864,127.144 59.596 C 126.820 58.902,125.987 58.000,125.669 58.000 C 125.111 58.000,124.503 58.412,124.501 58.792 C 124.501 58.998,124.437 59.167,124.360 59.167 C 124.050 59.167,123.806 60.155,123.714 61.782 C 123.660 62.727,123.553 63.500,123.475 63.500 C 123.397 63.500,123.333 64.877,123.333 66.560 L 123.333 69.620 122.943 69.546 C 122.720 69.503,122.439 69.585,122.288 69.736 C 122.124 69.900,121.735 70.000,121.262 70.000 C 120.843 70.000,120.500 70.075,120.500 70.167 C 120.500 70.258,120.246 70.333,119.934 70.333 C 119.586 70.333,119.332 70.429,119.273 70.583 C 119.217 70.729,118.967 70.833,118.672 70.833 C 118.394 70.833,118.167 70.908,118.167 71.000 C 118.167 71.092,117.979 71.167,117.750 71.167 C 117.521 71.167,117.333 71.242,117.333 71.333 C 117.333 71.425,117.155 71.500,116.937 71.500 C 116.719 71.500,116.447 71.612,116.333 71.750 C 116.219 71.887,115.948 72.000,115.730 72.000 C 115.512 72.000,115.333 72.075,115.333 72.167 C 115.333 72.258,115.221 72.333,115.083 72.333 C 114.946 72.333,114.833 72.446,114.833 72.583 C 114.833 72.721,114.720 72.833,114.581 72.833 C 114.246 72.833,113.688 73.163,113.241 73.625 C 113.042 73.831,112.821 74.000,112.750 74.000 C 112.551 74.000,112.000 74.692,112.000 74.942 C 112.000 75.066,111.925 75.167,111.833 75.167 C 111.742 75.167,111.667 75.279,111.667 75.417 C 111.667 75.554,111.592 75.667,111.500 75.667 C 111.408 75.667,111.333 75.810,111.333 75.986 C 111.333 76.162,111.243 76.336,111.132 76.373 C 110.577 76.558,110.960 80.500,111.533 80.500 C 111.606 80.500,111.667 80.650,111.667 80.833 C 111.667 81.017,111.734 81.167,111.815 81.167 C 111.897 81.167,112.013 81.361,112.072 81.598 C 112.132 81.835,112.365 82.228,112.590 82.471 C 112.816 82.714,113.000 82.974,113.000 83.048 C 113.000 83.121,113.169 83.362,113.375 83.583 C 113.581 83.804,114.013 84.295,114.333 84.675 C 114.654 85.055,115.285 85.714,115.735 86.141 C 116.186 86.568,116.706 87.085,116.891 87.292 C 117.075 87.498,117.326 87.667,117.447 87.667 C 117.568 87.667,117.667 87.779,117.667 87.917 C 117.667 88.054,117.779 88.167,117.917 88.167 C 118.054 88.167,118.167 88.242,118.167 88.333 C 118.167 88.425,118.276 88.500,118.409 88.500 C 118.542 88.500,118.898 88.744,119.200 89.042 C 119.801 89.633,120.258 89.956,120.708 90.108 C 120.869 90.161,121.000 90.260,121.000 90.327 C 121.000 90.393,121.263 90.589,121.583 90.762 C 121.904 90.934,122.167 91.134,122.167 91.205 C 122.167 91.275,122.309 91.333,122.482 91.333 C 122.840 91.333,123.000 91.644,123.000 92.337 C 123.000 92.599,123.075 92.860,123.167 92.917 C 123.258 92.973,123.333 93.451,123.333 93.979 C 123.333 95.045,123.721 96.004,124.410 96.642 C 124.643 96.858,124.833 97.102,124.833 97.184 C 124.833 97.418,127.309 97.365,127.598 97.125 C 128.386 96.472,128.667 96.108,128.667 95.742 C 128.667 95.517,128.742 95.333,128.833 95.333 C 128.925 95.333,129.000 95.071,129.000 94.750 C 129.000 94.429,129.075 94.167,129.167 94.167 C 129.258 94.167,129.333 94.242,129.333 94.333 C 129.333 94.425,129.652 94.502,130.042 94.505 C 130.431 94.508,130.896 94.621,131.074 94.755 C 131.284 94.915,131.792 95.000,132.532 95.000 C 133.177 95.000,133.667 95.072,133.667 95.167 C 133.667 95.378,138.703 95.394,138.925 95.183 C 139.012 95.100,139.678 95.004,140.404 94.970 C 141.248 94.930,141.750 94.834,141.793 94.704 C 141.831 94.590,142.146 94.500,142.504 94.500 C 142.858 94.500,143.193 94.425,143.250 94.333 C 143.307 94.242,143.613 94.167,143.932 94.167 C 144.292 94.167,144.547 94.072,144.606 93.917 C 144.659 93.779,144.882 93.667,145.101 93.667 C 145.321 93.667,145.500 93.592,145.500 93.500 C 145.500 93.408,145.727 93.333,146.005 93.333 C 146.291 93.333,146.550 93.229,146.602 93.094 C 146.653 92.962,146.791 92.891,146.909 92.937 C 147.027 92.982,147.168 92.902,147.223 92.760 C 147.278 92.617,147.439 92.500,147.580 92.500 C 147.936 92.500,148.442 92.207,149.237 91.542 C 149.374 91.427,149.564 91.333,149.660 91.333 C 149.755 91.333,149.833 91.263,149.833 91.178 C 149.833 91.092,150.002 90.969,150.208 90.904 C 150.415 90.839,150.705 90.646,150.853 90.476 C 151.001 90.306,151.207 90.167,151.311 90.167 C 151.415 90.167,151.500 90.054,151.500 89.917 C 151.500 89.779,151.599 89.667,151.720 89.667 C 151.923 89.667,152.667 88.942,152.667 88.744 C 152.667 88.697,152.910 88.393,153.208 88.070 C 153.798 87.429,154.333 86.545,154.333 86.211 C 154.333 86.095,154.408 86.000,154.500 86.000 C 154.592 86.000,154.667 85.884,154.667 85.743 C 154.667 85.601,154.854 85.283,155.083 85.036 C 155.313 84.789,155.500 84.459,155.500 84.303 C 155.500 84.147,155.575 83.973,155.667 83.917 C 155.758 83.860,155.833 83.646,155.833 83.440 C 155.833 83.235,155.913 82.987,156.010 82.890 C 156.107 82.793,156.230 82.291,156.283 81.774 C 156.336 81.257,156.444 80.833,156.523 80.833 C 156.602 80.833,156.667 79.371,156.667 77.583 C 156.667 75.796,156.602 74.333,156.523 74.333 C 156.444 74.333,156.338 73.875,156.287 73.314 C 156.236 72.753,156.113 72.213,156.014 72.114 C 155.915 72.015,155.833 71.765,155.833 71.560 C 155.833 71.354,155.758 71.140,155.667 71.083 C 155.575 71.027,155.500 70.835,155.500 70.657 C 155.500 70.479,155.430 70.333,155.345 70.333 C 155.259 70.333,155.140 70.165,155.080 69.958 C 154.881 69.279,154.587 68.667,154.459 68.667 C 154.390 68.667,154.333 68.531,154.333 68.365 C 154.333 68.199,154.223 67.918,154.089 67.740 C 153.954 67.562,153.842 67.285,153.839 67.125 C 153.836 66.965,153.758 66.833,153.667 66.833 C 153.575 66.833,153.500 66.755,153.500 66.660 C 153.500 66.496,153.370 66.308,152.875 65.756 C 152.760 65.628,152.667 65.443,152.667 65.345 C 152.667 65.247,152.600 65.167,152.518 65.167 C 152.436 65.167,152.325 64.990,152.271 64.774 C 152.217 64.558,151.911 64.089,151.593 63.732 C 150.730 62.767,150.667 62.689,150.667 62.592 C 150.667 62.479,150.053 61.742,149.458 61.141 C 149.206 60.886,149.000 60.632,149.000 60.575 C 149.000 60.430,145.737 57.235,144.667 56.333 C 144.178 55.921,143.683 55.490,143.568 55.375 C 143.452 55.260,143.309 55.167,143.251 55.167 C 143.192 55.167,142.868 54.905,142.531 54.585 C 142.193 54.265,141.836 54.002,141.737 54.001 C 141.639 54.001,141.382 53.813,141.167 53.583 C 140.951 53.354,140.676 53.167,140.554 53.167 C 140.433 53.167,140.333 53.092,140.333 53.000 C 140.333 52.908,140.229 52.833,140.101 52.833 C 139.973 52.833,139.826 52.721,139.773 52.583 C 139.720 52.446,139.562 52.333,139.422 52.333 C 139.282 52.333,139.167 52.266,139.167 52.185 C 139.167 52.103,138.996 51.993,138.788 51.941 C 138.580 51.889,138.262 51.710,138.080 51.543 C 137.899 51.376,137.461 51.092,137.109 50.911 C 136.756 50.731,136.325 50.509,136.151 50.419 C 135.976 50.328,135.833 50.197,135.833 50.127 C 135.833 50.057,135.719 50.000,135.580 50.000 C 135.441 50.000,135.030 49.813,134.667 49.583 C 134.304 49.354,133.897 49.167,133.763 49.167 C 133.629 49.167,133.473 49.092,133.417 49.000 C 133.360 48.908,133.176 48.833,133.008 48.833 C 132.840 48.833,132.659 48.721,132.606 48.583 C 132.554 48.446,132.358 48.333,132.172 48.333 C 131.986 48.333,131.833 48.258,131.833 48.167 C 131.833 48.075,131.660 48.000,131.449 48.000 C 131.237 48.000,130.918 47.890,130.740 47.755 C 130.562 47.621,130.285 47.508,130.125 47.505 C 129.965 47.502,129.833 47.425,129.833 47.333 C 129.833 47.242,129.705 47.167,129.547 47.167 C 129.129 47.167,127.833 46.646,127.833 46.477 C 127.833 46.398,127.571 46.333,127.250 46.333 C 126.929 46.333,126.667 46.267,126.667 46.185 C 126.667 46.103,126.423 46.000,126.125 45.956 C 125.636 45.883,125.031 45.694,124.083 45.318 C 123.759 45.189,123.125 45.088,121.418 44.891 C 120.960 44.839,120.437 44.692,120.256 44.565 C 119.750 44.210,111.296 44.227,111.000 44.583 M247.875 46.707 C 247.943 46.913,247.778 47.036,246.672 47.607 C 246.354 47.771,245.958 48.042,245.791 48.209 C 245.519 48.481,245.462 48.486,245.232 48.256 C 245.091 48.115,244.869 48.000,244.738 48.000 C 244.477 48.000,244.411 48.425,244.648 48.572 C 244.730 48.622,244.846 48.861,244.906 49.102 C 244.967 49.343,245.122 49.646,245.251 49.775 C 245.380 49.904,245.443 50.120,245.392 50.255 C 245.340 50.390,245.381 50.500,245.482 50.500 C 245.584 50.500,245.667 50.603,245.667 50.730 C 245.667 50.856,245.780 51.053,245.919 51.168 C 246.058 51.284,246.160 51.462,246.147 51.564 C 246.115 51.816,246.545 52.833,246.684 52.833 C 246.745 52.833,246.846 53.169,246.907 53.579 C 246.969 53.990,247.090 54.369,247.176 54.423 C 247.263 54.476,247.333 54.703,247.333 54.927 C 247.333 55.150,247.408 55.333,247.500 55.333 C 247.592 55.333,247.667 55.512,247.667 55.730 C 247.667 55.948,247.779 56.219,247.917 56.333 C 248.054 56.447,248.167 56.667,248.167 56.822 C 248.167 56.977,248.317 57.265,248.500 57.462 C 248.683 57.658,248.833 57.935,248.833 58.076 C 248.833 58.523,252.441 58.450,252.583 58.000 C 252.642 57.817,252.759 57.667,252.845 57.667 C 253.054 57.667,253.044 56.213,252.833 56.083 C 252.742 56.027,252.667 55.852,252.667 55.694 C 252.667 55.537,252.444 54.960,252.172 54.412 C 251.900 53.865,251.675 53.248,251.672 53.042 C 251.669 52.835,251.592 52.667,251.500 52.667 C 251.408 52.667,251.333 52.479,251.333 52.250 C 251.333 52.021,251.258 51.833,251.167 51.833 C 251.075 51.833,251.000 51.682,251.000 51.498 C 251.000 51.313,250.933 51.032,250.852 50.873 C 250.770 50.714,250.564 50.265,250.393 49.877 C 250.223 49.488,250.028 49.170,249.960 49.169 C 249.893 49.168,249.789 48.867,249.731 48.500 C 249.672 48.133,249.564 47.833,249.490 47.833 C 249.417 47.833,249.332 47.665,249.303 47.458 C 249.261 47.164,249.151 47.090,248.791 47.115 C 248.439 47.139,248.333 47.072,248.333 46.823 C 248.333 46.639,248.219 46.500,248.069 46.500 C 247.924 46.500,247.837 46.593,247.875 46.707 M162.417 49.039 C 162.142 49.133,161.654 49.354,161.333 49.532 C 161.012 49.709,160.619 49.896,160.458 49.947 C 160.298 49.997,160.167 50.105,160.167 50.186 C 160.167 50.267,160.046 50.333,159.899 50.333 C 159.663 50.333,158.889 50.858,158.417 51.340 C 158.325 51.433,158.151 51.601,158.030 51.713 C 156.473 53.152,155.532 54.231,155.411 54.713 C 155.348 54.963,155.230 55.167,155.149 55.167 C 155.067 55.167,155.000 55.292,155.000 55.445 C 155.000 55.598,154.900 55.842,154.779 55.987 C 153.950 56.973,153.952 61.967,154.782 62.285 C 154.902 62.331,155.000 62.467,155.000 62.587 C 155.000 62.707,155.085 62.834,155.188 62.868 C 155.302 62.906,155.409 63.566,155.461 64.549 C 155.507 65.439,155.610 66.167,155.689 66.167 C 155.769 66.167,155.833 66.278,155.833 66.415 C 155.833 67.009,156.376 67.333,157.370 67.333 C 157.944 67.333,158.333 67.261,158.333 67.155 C 158.333 66.539,158.847 66.417,161.433 66.417 C 163.833 66.417,163.995 66.396,164.370 66.044 C 164.588 65.839,164.998 65.625,165.281 65.569 C 165.565 65.512,166.029 65.254,166.312 64.995 C 166.595 64.736,166.997 64.473,167.205 64.411 C 167.413 64.348,167.733 64.153,167.917 63.978 C 168.100 63.803,168.456 63.506,168.708 63.318 C 168.960 63.130,169.167 62.869,169.167 62.738 C 169.167 62.607,169.312 62.500,169.489 62.500 C 169.666 62.500,169.854 62.365,169.906 62.199 C 169.959 62.034,170.409 61.472,170.906 60.950 C 171.403 60.428,171.862 59.838,171.926 59.638 C 171.989 59.439,172.173 59.133,172.335 58.960 C 172.656 58.615,172.833 57.941,172.833 57.063 C 172.833 56.753,172.908 56.500,173.000 56.500 C 173.092 56.500,173.167 56.087,173.167 55.583 C 173.167 55.079,173.092 54.667,173.000 54.667 C 172.908 54.667,172.833 54.421,172.833 54.120 C 172.833 53.542,172.388 52.753,171.700 52.117 C 171.581 52.007,171.303 51.748,171.083 51.542 C 170.862 51.335,170.561 51.167,170.413 51.167 C 169.992 51.167,169.558 50.881,168.625 49.991 C 168.150 49.538,167.631 49.167,167.473 49.167 C 167.316 49.167,167.140 49.092,167.083 49.000 C 166.949 48.782,163.077 48.814,162.417 49.039 M168.800 54.867 C 168.910 54.977,169.000 55.009,169.000 54.938 C 169.000 54.867,169.112 54.922,169.250 55.060 C 170.371 56.180,168.813 58.989,166.417 60.170 C 166.142 60.305,165.879 60.460,165.833 60.513 C 165.590 60.795,164.534 61.167,163.974 61.167 C 163.622 61.167,163.333 61.242,163.333 61.333 C 163.333 61.429,162.856 61.494,162.208 61.487 C 161.590 61.480,161.177 61.436,161.292 61.390 C 161.406 61.343,161.500 61.199,161.500 61.069 C 161.500 60.940,161.567 60.833,161.649 60.833 C 161.730 60.833,161.844 60.646,161.902 60.417 C 161.959 60.188,162.080 60.000,162.170 60.000 C 162.260 60.000,162.333 59.922,162.333 59.826 C 162.333 59.730,162.502 59.473,162.708 59.255 C 164.613 57.243,165.374 56.490,165.662 56.336 C 165.848 56.236,166.000 56.045,166.000 55.911 C 166.000 55.777,166.131 55.664,166.292 55.661 C 166.452 55.658,166.729 55.546,166.907 55.411 C 167.085 55.277,167.368 55.167,167.537 55.167 C 167.706 55.167,167.887 55.054,167.940 54.917 C 168.055 54.616,168.523 54.589,168.800 54.867 M160.333 55.057 C 160.333 55.088,160.052 55.416,159.708 55.785 C 158.744 56.821,158.175 57.563,158.171 57.792 C 158.169 57.906,158.103 58.000,158.025 58.000 C 157.948 58.000,157.803 58.169,157.703 58.375 L 157.523 58.750 157.511 58.375 C 157.505 58.169,157.560 58.000,157.633 58.000 C 157.706 58.000,157.858 57.747,157.969 57.438 C 158.250 56.661,160.333 54.563,160.333 55.057 M249.873 62.331 C 249.577 62.806,249.604 65.020,249.911 65.426 C 250.064 65.628,250.158 66.140,250.161 66.782 C 250.164 67.349,250.242 67.860,250.333 67.917 C 250.425 67.973,250.500 68.653,250.500 69.427 C 250.500 70.253,250.569 70.833,250.667 70.833 C 250.769 70.833,250.833 71.611,250.833 72.833 L 250.833 74.833 245.833 74.833 C 241.017 74.833,240.833 74.845,240.833 75.153 C 240.833 75.328,240.740 75.503,240.625 75.542 C 240.281 75.656,240.231 78.874,240.569 79.211 C 240.714 79.357,240.833 79.586,240.833 79.720 C 240.833 80.135,241.214 80.167,246.205 80.167 L 251.050 80.167 250.931 86.042 C 250.786 93.163,250.596 92.500,252.780 92.500 C 255.490 92.500,255.386 92.821,255.595 83.792 L 255.679 80.167 260.564 80.167 C 265.862 80.167,265.800 80.177,266.307 79.219 C 266.645 78.582,266.552 76.003,266.168 75.375 L 265.838 74.833 260.586 74.833 L 255.333 74.833 255.333 72.583 C 255.333 71.194,255.270 70.333,255.167 70.333 C 255.069 70.333,255.000 69.753,255.000 68.927 C 255.000 68.153,254.937 67.481,254.859 67.433 C 254.782 67.385,254.670 66.440,254.610 65.333 C 254.521 63.678,254.435 63.202,254.126 62.661 L 253.750 62.003 251.915 62.001 C 250.264 62.000,250.059 62.033,249.873 62.331 M194.058 66.208 C 193.872 66.509,193.970 69.573,194.167 69.639 C 194.259 69.669,194.336 70.007,194.339 70.389 C 194.342 70.771,194.454 71.229,194.589 71.407 C 194.723 71.585,194.833 71.979,194.833 72.282 C 194.833 72.585,194.908 72.833,195.000 72.833 C 195.092 72.833,195.167 73.133,195.167 73.500 C 195.167 73.867,195.229 74.167,195.304 74.167 C 195.441 74.167,195.788 76.602,195.945 78.667 C 195.990 79.262,196.096 79.821,196.180 79.908 C 196.389 80.124,196.377 82.333,196.167 82.333 C 196.075 82.333,196.000 82.183,196.000 82.000 C 196.000 81.817,195.940 81.667,195.867 81.667 C 195.794 81.667,195.637 81.399,195.519 81.072 C 195.401 80.746,195.198 80.438,195.069 80.388 C 194.939 80.338,194.833 80.156,194.833 79.982 C 194.833 79.809,194.758 79.667,194.667 79.667 C 194.575 79.667,194.500 79.584,194.500 79.484 C 194.500 79.260,193.978 78.116,193.823 78.000 C 193.762 77.954,193.659 77.748,193.595 77.542 C 193.530 77.335,193.408 77.167,193.322 77.167 C 193.237 77.167,193.167 77.054,193.167 76.917 C 193.167 76.779,193.110 76.666,193.042 76.665 C 192.973 76.664,192.769 76.327,192.588 75.915 C 192.407 75.503,192.200 75.167,192.129 75.167 C 192.058 75.167,192.000 75.017,192.000 74.833 C 192.000 74.650,191.933 74.500,191.851 74.500 C 191.770 74.500,191.660 74.330,191.608 74.122 C 191.556 73.914,191.362 73.582,191.178 73.384 C 190.994 73.186,190.710 72.718,190.548 72.344 C 190.386 71.970,190.121 71.622,189.960 71.571 C 189.799 71.519,189.667 71.408,189.667 71.322 C 189.667 71.237,189.554 71.167,189.417 71.167 C 189.279 71.167,189.167 71.092,189.167 71.000 C 189.167 70.908,188.901 70.833,188.576 70.833 C 188.007 70.833,187.167 71.413,187.167 71.805 C 187.167 71.890,187.054 72.053,186.917 72.167 C 186.779 72.281,186.667 72.552,186.667 72.770 C 186.667 72.988,186.592 73.167,186.500 73.167 C 186.408 73.167,186.333 73.429,186.333 73.750 C 186.333 74.071,186.265 74.333,186.181 74.333 C 186.097 74.333,185.976 74.896,185.911 75.583 C 185.847 76.271,185.728 76.833,185.647 76.833 C 185.566 76.833,185.500 77.202,185.500 77.653 C 185.500 78.140,185.419 78.499,185.301 78.539 C 185.047 78.623,184.834 80.193,184.725 82.792 C 184.613 85.462,184.394 85.479,184.056 82.844 C 184.004 82.437,183.858 82.001,183.731 81.874 C 183.604 81.747,183.500 81.461,183.500 81.238 C 183.500 81.015,183.425 80.833,183.333 80.833 C 183.242 80.833,183.167 80.745,183.167 80.638 C 183.167 80.222,182.571 79.175,182.331 79.171 C 182.193 79.169,181.938 78.979,181.766 78.750 C 181.594 78.521,181.314 78.333,181.143 78.333 C 180.973 78.333,180.833 78.258,180.833 78.167 C 180.833 78.075,180.652 78.000,180.431 78.000 C 180.209 78.000,180.000 77.918,179.967 77.818 C 179.934 77.717,179.571 77.563,179.161 77.475 C 178.752 77.387,178.079 77.236,177.667 77.140 C 177.254 77.044,176.354 76.929,175.667 76.885 C 174.830 76.832,174.373 76.727,174.283 76.569 C 174.186 76.397,173.795 76.333,172.835 76.333 C 172.112 76.333,171.473 76.258,171.417 76.167 C 171.360 76.075,170.906 76.000,170.407 76.000 C 169.908 76.000,169.500 75.925,169.500 75.833 C 169.500 75.742,169.762 75.667,170.083 75.667 C 170.404 75.667,170.667 75.598,170.667 75.514 C 170.667 75.430,171.210 75.323,171.875 75.276 C 172.540 75.230,173.308 75.163,173.583 75.127 C 173.858 75.091,174.622 75.048,175.280 75.031 C 176.087 75.010,176.558 74.919,176.726 74.750 C 176.927 74.550,177.483 74.500,179.530 74.499 C 182.151 74.498,183.282 74.327,183.444 73.906 C 183.494 73.774,183.608 73.667,183.696 73.667 C 184.914 73.667,184.926 70.371,183.708 70.339 C 183.594 70.336,183.500 70.258,183.500 70.167 C 183.500 70.075,183.321 70.000,183.101 70.000 C 182.882 70.000,182.659 69.887,182.606 69.750 C 182.551 69.605,182.302 69.500,182.015 69.500 C 181.743 69.500,181.473 69.425,181.417 69.333 C 181.360 69.242,180.910 69.167,180.417 69.167 C 179.923 69.167,179.473 69.092,179.417 69.000 C 179.357 68.903,178.415 68.833,177.157 68.833 C 175.830 68.833,175.000 68.897,175.000 69.000 C 175.000 69.096,174.476 69.167,173.760 69.167 C 173.078 69.167,172.473 69.242,172.417 69.333 C 172.360 69.425,172.027 69.500,171.677 69.500 C 171.315 69.500,170.951 69.608,170.833 69.750 C 170.719 69.887,170.448 70.000,170.230 70.000 C 170.012 70.000,169.833 70.075,169.833 70.167 C 169.833 70.258,169.646 70.333,169.417 70.333 C 169.188 70.333,169.000 70.407,169.000 70.497 C 169.000 70.587,168.813 70.707,168.583 70.765 C 168.354 70.822,168.167 70.936,168.167 71.018 C 168.167 71.100,168.054 71.167,167.916 71.167 C 167.702 71.167,166.887 71.933,165.930 73.033 C 164.689 74.460,164.646 79.323,165.875 79.331 C 166.035 79.332,166.167 79.408,166.167 79.500 C 166.167 79.592,166.247 79.667,166.345 79.667 C 166.443 79.667,166.636 79.779,166.774 79.917 C 166.911 80.054,167.318 80.167,167.679 80.167 C 168.039 80.167,168.333 80.242,168.333 80.333 C 168.333 80.434,169.052 80.500,170.157 80.500 C 171.193 80.500,172.025 80.572,172.083 80.667 C 172.150 80.774,171.557 80.833,170.427 80.833 C 169.364 80.833,168.667 80.899,168.667 81.000 C 168.667 81.092,168.497 81.167,168.290 81.167 C 168.083 81.167,167.711 81.354,167.464 81.583 C 167.217 81.813,166.963 82.000,166.901 82.000 C 166.713 82.000,166.344 82.563,166.339 82.857 C 166.336 83.008,166.221 83.174,166.083 83.227 C 165.937 83.283,165.833 83.533,165.833 83.828 C 165.833 84.106,165.758 84.333,165.667 84.333 C 165.575 84.333,165.500 84.671,165.500 85.083 C 165.500 85.496,165.575 85.833,165.667 85.833 C 165.758 85.833,165.833 86.049,165.833 86.313 C 165.833 86.577,165.946 86.886,166.083 87.000 C 166.221 87.114,166.333 87.311,166.333 87.437 C 166.333 87.563,166.408 87.667,166.500 87.667 C 166.592 87.667,166.667 87.747,166.667 87.845 C 166.667 87.943,166.760 88.123,166.875 88.243 C 166.990 88.364,167.225 88.659,167.398 88.898 C 167.572 89.138,167.803 89.333,167.913 89.333 C 168.023 89.333,168.199 89.521,168.303 89.750 C 168.407 89.979,168.607 90.167,168.746 90.167 C 168.886 90.167,169.000 90.233,169.000 90.314 C 169.000 90.395,169.131 90.506,169.292 90.562 C 169.452 90.617,169.808 90.808,170.083 90.986 C 170.358 91.164,170.752 91.314,170.958 91.321 C 171.165 91.328,171.333 91.408,171.333 91.500 C 171.333 91.592,171.553 91.667,171.821 91.667 C 172.090 91.667,172.422 91.779,172.560 91.917 C 172.761 92.118,173.327 92.167,175.468 92.167 C 177.627 92.167,178.165 92.120,178.333 91.917 C 178.447 91.779,178.757 91.667,179.020 91.667 C 179.284 91.667,179.500 91.592,179.500 91.500 C 179.500 91.408,179.688 91.333,179.917 91.333 C 180.146 91.333,180.333 91.275,180.333 91.205 C 180.333 91.134,180.596 90.934,180.917 90.762 C 181.237 90.589,181.500 90.384,181.500 90.307 C 181.500 90.230,181.612 90.167,181.750 90.167 C 181.887 90.167,182.000 90.110,182.000 90.042 C 182.000 89.973,182.188 89.699,182.417 89.432 C 182.646 89.166,182.833 88.847,182.833 88.724 C 182.833 88.601,182.890 88.500,182.959 88.500 C 183.029 88.500,183.182 88.256,183.300 87.958 C 183.418 87.660,183.624 87.204,183.757 86.945 C 183.891 86.685,184.000 86.142,184.000 85.736 C 184.000 85.331,184.075 85.000,184.167 85.000 C 184.266 85.000,184.333 85.639,184.333 86.583 C 184.333 87.454,184.399 88.167,184.480 88.167 C 184.561 88.167,184.662 88.598,184.706 89.125 C 184.835 90.671,185.689 92.167,186.444 92.167 C 186.647 92.167,186.860 92.242,186.917 92.333 C 186.973 92.425,187.165 92.500,187.343 92.500 C 187.521 92.500,187.667 92.425,187.667 92.333 C 187.667 92.242,187.827 92.167,188.023 92.167 C 188.495 92.167,188.821 91.710,188.828 91.042 C 188.831 90.744,188.908 90.500,189.000 90.500 C 189.101 90.500,189.169 89.733,189.172 88.542 C 189.176 87.084,189.240 86.501,189.422 86.260 C 189.617 86.002,189.670 85.257,189.682 82.593 C 189.693 80.171,189.740 79.411,189.854 79.833 C 189.941 80.154,190.078 80.567,190.160 80.750 C 190.241 80.933,190.440 81.402,190.602 81.792 C 190.765 82.181,190.958 82.500,191.032 82.500 C 191.106 82.500,191.167 82.650,191.167 82.833 C 191.167 83.017,191.236 83.167,191.320 83.167 C 191.404 83.167,191.522 83.388,191.582 83.660 C 191.690 84.153,192.204 85.363,192.505 85.833 C 192.593 85.971,192.796 86.365,192.955 86.708 C 193.115 87.052,193.303 87.333,193.373 87.333 C 193.443 87.333,193.500 87.458,193.500 87.609 C 193.500 87.761,193.688 88.131,193.917 88.431 C 194.146 88.732,194.333 89.025,194.333 89.083 C 194.333 89.644,196.142 91.000,196.890 91.000 C 198.025 91.000,199.667 89.973,199.667 89.263 C 199.667 89.118,199.742 89.000,199.833 89.000 C 199.925 89.000,200.000 88.888,200.000 88.750 C 200.000 88.612,200.074 88.500,200.165 88.500 C 200.255 88.500,200.377 88.205,200.434 87.844 C 200.492 87.483,200.669 87.048,200.827 86.878 C 201.637 86.009,201.640 77.170,200.832 76.000 C 200.673 75.771,200.491 75.153,200.427 74.628 C 200.363 74.102,200.240 73.629,200.155 73.576 C 200.070 73.523,200.000 73.260,200.000 72.990 C 200.000 72.721,199.925 72.500,199.833 72.500 C 199.742 72.500,199.667 72.352,199.667 72.170 C 199.667 71.673,199.146 70.453,198.803 70.147 C 198.637 69.999,198.454 69.643,198.396 69.356 C 198.339 69.068,198.226 68.833,198.146 68.833 C 198.066 68.833,198.000 68.721,198.000 68.583 C 198.000 68.446,197.930 68.333,197.845 68.333 C 197.759 68.333,197.644 68.192,197.589 68.019 C 197.535 67.847,197.267 67.472,196.995 67.188 C 196.723 66.903,196.500 66.594,196.500 66.502 C 196.500 66.409,196.387 66.333,196.250 66.333 C 196.112 66.333,196.000 66.258,196.000 66.167 C 196.000 65.920,194.212 65.958,194.058 66.208 M294.667 67.133 C 294.667 67.573,294.598 68.005,294.515 68.092 C 294.431 68.179,294.309 69.469,294.244 70.958 L 294.124 73.667 303.229 73.667 L 312.333 73.667 312.333 72.847 C 312.333 72.397,312.399 72.003,312.480 71.972 C 312.561 71.942,312.681 70.660,312.748 69.125 L 312.869 66.333 303.768 66.333 L 294.667 66.333 294.667 67.133 M316.333 66.583 C 316.333 66.739,316.176 66.833,315.917 66.833 C 315.688 66.833,315.500 66.908,315.500 67.000 C 315.500 67.092,315.394 67.167,315.264 67.167 C 314.945 67.167,313.833 68.265,313.833 68.580 C 313.833 68.720,313.758 68.833,313.667 68.833 C 313.575 68.833,313.500 68.983,313.500 69.167 C 313.500 69.350,313.433 69.500,313.351 69.500 C 313.098 69.500,312.752 72.267,312.904 73.075 L 313.015 73.668 332.549 73.626 L 352.083 73.583 352.083 71.181 C 352.083 69.406,352.029 68.760,351.875 68.708 C 351.760 68.670,351.667 68.551,351.667 68.444 C 351.667 68.102,350.384 66.833,350.037 66.833 C 349.853 66.833,349.659 66.721,349.606 66.583 C 349.522 66.363,347.514 66.333,332.922 66.333 C 318.288 66.333,316.333 66.363,316.333 66.583 M353.167 67.512 C 353.167 68.337,353.092 68.765,352.917 68.940 C 352.750 69.107,352.660 69.560,352.645 70.304 C 352.634 70.916,352.593 71.567,352.556 71.750 C 352.518 71.933,352.445 72.440,352.394 72.875 L 352.300 73.667 362.200 73.667 C 369.678 73.667,372.149 73.618,372.300 73.467 C 372.540 73.226,372.582 69.570,372.346 69.425 C 372.262 69.372,372.143 69.105,372.083 68.831 C 372.023 68.557,371.904 68.333,371.820 68.333 C 371.736 68.333,371.667 68.239,371.667 68.124 C 371.667 67.841,370.552 66.833,370.239 66.833 C 370.102 66.833,369.946 66.721,369.894 66.583 C 369.810 66.366,368.720 66.333,361.482 66.333 L 353.167 66.333 353.167 67.512 M212.833 68.167 C 212.833 68.266,212.193 68.333,211.245 68.333 C 209.986 68.333,209.636 68.385,209.560 68.583 C 209.487 68.774,209.175 68.833,208.242 68.833 C 207.570 68.833,206.973 68.908,206.917 69.000 C 206.860 69.092,206.443 69.167,205.990 69.167 C 205.537 69.167,205.167 69.242,205.167 69.333 C 205.167 69.425,204.872 69.500,204.512 69.500 C 204.152 69.500,203.745 69.612,203.607 69.750 C 203.470 69.887,203.248 70.000,203.114 70.000 C 202.818 70.000,202.607 71.212,202.791 71.856 C 202.976 72.502,203.670 73.333,204.025 73.333 C 204.195 73.333,204.333 73.408,204.333 73.500 C 204.333 73.592,204.483 73.667,204.667 73.667 C 205.225 73.667,205.589 74.176,205.532 74.875 C 205.503 75.219,205.409 75.500,205.323 75.500 C 205.237 75.500,205.167 75.725,205.167 76.000 C 205.167 76.275,205.092 76.500,205.000 76.500 C 204.908 76.500,204.833 76.650,204.833 76.833 C 204.833 77.099,204.722 77.167,204.287 77.167 C 203.720 77.167,203.167 77.620,203.167 78.085 C 203.167 78.222,203.092 78.333,203.000 78.333 C 202.908 78.333,202.833 78.666,202.833 79.073 C 202.833 79.481,202.908 79.860,203.000 79.917 C 203.210 80.047,203.221 82.000,203.012 82.000 C 202.927 82.000,202.804 82.427,202.739 82.949 C 202.669 83.506,202.492 84.034,202.310 84.230 C 201.765 84.816,201.935 88.833,202.505 88.833 C 202.571 88.833,202.672 89.133,202.731 89.500 C 202.789 89.867,202.911 90.167,203.002 90.167 C 203.093 90.167,203.167 90.287,203.167 90.433 C 203.167 90.748,204.620 92.167,204.943 92.167 C 205.066 92.167,205.167 92.242,205.167 92.333 C 205.167 92.434,205.889 92.500,207.000 92.500 C 208.111 92.500,208.833 92.434,208.833 92.333 C 208.833 92.242,209.088 92.167,209.399 92.167 C 209.748 92.167,210.001 92.071,210.060 91.917 C 210.113 91.779,210.304 91.667,210.485 91.667 C 210.666 91.667,210.860 91.592,210.917 91.500 C 210.973 91.408,211.165 91.333,211.343 91.333 C 211.521 91.333,211.667 91.258,211.667 91.167 C 211.667 91.075,211.774 91.000,211.905 91.000 C 212.036 91.000,212.242 90.902,212.363 90.781 C 212.484 90.661,212.827 90.455,213.125 90.324 C 213.423 90.193,213.667 89.991,213.667 89.876 C 213.667 89.761,213.745 89.667,213.841 89.667 C 213.937 89.667,214.196 89.498,214.416 89.292 C 214.637 89.085,214.915 88.827,215.034 88.716 C 215.364 88.410,215.667 88.026,215.667 87.912 C 215.667 87.856,215.779 87.697,215.917 87.560 C 216.236 87.240,216.239 86.326,215.922 85.907 C 215.787 85.729,215.675 85.415,215.672 85.208 C 215.669 85.002,215.593 84.833,215.503 84.833 C 215.413 84.833,215.293 84.646,215.235 84.417 C 215.123 83.971,212.009 83.748,211.750 84.167 C 211.693 84.258,211.244 84.333,210.752 84.333 C 210.179 84.333,209.767 84.423,209.607 84.583 C 209.446 84.745,209.033 84.833,208.442 84.833 C 207.867 84.833,207.497 84.911,207.444 85.042 C 207.397 85.156,207.354 84.969,207.346 84.625 C 207.339 84.281,207.408 84.000,207.500 84.000 C 207.592 84.000,207.667 83.737,207.667 83.417 C 207.667 83.096,207.742 82.833,207.833 82.833 C 207.925 82.833,208.000 82.571,208.000 82.250 L 208.000 81.667 210.667 81.667 C 212.333 81.667,213.333 81.604,213.333 81.500 C 213.333 81.408,213.737 81.333,214.231 81.333 C 215.298 81.333,215.329 81.275,215.329 79.250 C 215.329 76.881,215.262 76.833,211.967 76.833 L 209.667 76.833 209.667 76.417 C 209.667 76.188,209.742 76.000,209.833 76.000 C 209.925 76.000,210.000 75.669,210.000 75.264 L 210.000 74.529 213.542 74.466 C 216.974 74.406,218.000 74.254,218.000 73.807 C 218.000 73.730,218.094 73.666,218.208 73.665 C 218.663 73.663,219.062 71.994,218.667 71.750 C 218.575 71.693,218.500 71.464,218.500 71.240 C 218.500 71.016,218.442 70.833,218.371 70.833 C 218.300 70.833,218.101 70.571,217.928 70.250 C 217.756 69.929,217.551 69.667,217.474 69.667 C 217.397 69.667,217.333 69.554,217.333 69.417 C 217.333 69.279,217.221 69.167,217.083 69.167 C 216.946 69.167,216.833 69.092,216.833 69.000 C 216.833 68.908,216.718 68.833,216.578 68.833 C 216.438 68.833,216.280 68.721,216.227 68.583 C 216.173 68.442,215.925 68.333,215.659 68.333 C 215.399 68.333,215.140 68.258,215.083 68.167 C 215.027 68.075,214.497 68.000,213.907 68.000 C 213.302 68.000,212.833 68.073,212.833 68.167 M224.081 69.276 C 223.899 69.520,223.431 70.048,223.042 70.449 C 222.652 70.851,222.333 71.289,222.333 71.423 C 222.333 71.557,222.258 71.667,222.167 71.667 C 222.075 71.667,222.000 71.817,222.000 72.000 C 222.000 72.183,221.925 72.333,221.833 72.333 C 221.742 72.333,221.667 72.414,221.667 72.512 C 221.667 72.610,221.573 72.795,221.458 72.923 C 220.964 73.474,220.833 73.663,220.833 73.826 C 220.833 73.922,220.768 74.000,220.688 74.000 C 220.608 74.000,220.495 74.300,220.436 74.667 C 220.377 75.033,220.255 75.333,220.165 75.333 C 220.074 75.333,220.000 75.483,220.000 75.667 C 220.000 75.850,219.925 76.000,219.833 76.000 C 219.742 76.000,219.667 76.179,219.667 76.399 C 219.667 76.618,219.554 76.841,219.417 76.894 C 219.279 76.946,219.167 77.137,219.167 77.318 C 219.167 77.499,219.092 77.693,219.000 77.750 C 218.908 77.807,218.833 78.074,218.833 78.343 C 218.833 78.613,218.764 78.833,218.680 78.833 C 218.596 78.833,218.480 79.340,218.422 79.958 C 218.365 80.577,218.246 81.214,218.159 81.373 C 217.919 81.810,217.955 86.555,218.200 86.800 C 218.482 87.082,218.490 90.576,218.208 90.858 C 218.094 90.973,218.000 91.245,218.000 91.462 C 218.000 91.679,217.887 91.970,217.750 92.107 C 217.612 92.245,217.500 92.535,217.500 92.752 C 217.500 92.969,217.425 93.193,217.333 93.250 C 217.242 93.307,217.167 93.611,217.167 93.927 C 217.167 94.242,217.092 94.500,217.000 94.500 C 216.908 94.500,216.833 94.837,216.833 95.250 C 216.833 95.662,216.764 96.000,216.680 96.000 C 216.596 96.000,216.474 96.750,216.409 97.667 C 216.344 98.583,216.225 99.333,216.145 99.333 C 216.065 99.333,216.000 99.740,216.000 100.236 C 216.000 100.810,215.924 101.164,215.792 101.208 C 215.127 101.429,215.153 109.079,215.819 109.301 C 215.918 109.334,216.000 109.467,216.000 109.597 C 216.000 109.727,216.075 109.833,216.167 109.833 C 216.258 109.833,216.333 109.969,216.333 110.135 C 216.333 110.405,216.631 110.712,217.984 111.834 C 218.951 112.637,220.167 111.936,220.167 110.575 C 220.167 110.167,220.242 109.833,220.333 109.833 C 220.426 109.833,220.500 109.389,220.500 108.833 C 220.500 108.283,220.568 107.833,220.651 107.833 C 220.734 107.833,220.844 107.440,220.895 106.958 C 221.237 103.717,221.403 102.571,221.542 102.480 C 221.763 102.335,222.161 100.562,222.164 99.708 C 222.165 99.319,222.242 99.000,222.333 99.000 C 222.425 99.000,222.500 98.704,222.500 98.343 C 222.500 97.982,222.575 97.640,222.667 97.583 C 222.758 97.527,222.833 97.189,222.833 96.833 C 222.833 96.477,222.898 96.146,222.978 96.097 C 223.058 96.048,223.174 95.612,223.236 95.129 C 223.457 93.417,223.545 93.333,225.124 93.333 C 225.930 93.333,226.500 93.264,226.500 93.167 C 226.500 93.075,226.765 93.000,227.089 93.000 C 227.458 93.000,227.713 92.907,227.773 92.750 C 227.826 92.612,227.996 92.500,228.151 92.500 C 228.588 92.500,229.331 92.107,229.332 91.875 C 229.333 91.760,229.483 91.667,229.667 91.667 C 229.850 91.667,230.000 91.592,230.000 91.500 C 230.000 91.408,230.085 91.333,230.189 91.333 C 230.293 91.333,230.552 91.146,230.765 90.917 C 230.977 90.688,231.229 90.500,231.325 90.500 C 231.421 90.500,231.500 90.444,231.500 90.375 C 231.501 90.306,231.718 90.105,231.983 89.927 C 232.248 89.749,232.599 89.377,232.763 89.100 C 232.926 88.823,233.269 88.392,233.524 88.143 C 233.779 87.894,234.036 87.497,234.095 87.262 C 234.154 87.026,234.261 86.833,234.332 86.833 C 234.404 86.833,234.594 86.552,234.754 86.208 C 234.915 85.865,235.186 85.384,235.357 85.141 C 235.527 84.898,235.667 84.556,235.667 84.383 C 235.667 84.209,235.741 83.992,235.833 83.901 C 235.924 83.810,236.048 83.154,236.108 82.445 C 236.167 81.736,236.280 81.116,236.358 81.068 C 236.563 80.941,236.539 76.333,236.333 76.333 C 236.242 76.333,236.167 76.035,236.167 75.670 C 236.167 74.855,235.727 73.713,235.215 73.201 C 235.005 72.990,234.833 72.744,234.833 72.652 C 234.833 71.974,233.472 71.167,232.327 71.167 C 231.664 71.167,231.167 71.238,231.167 71.333 C 231.167 71.425,231.058 71.500,230.925 71.500 C 230.792 71.500,230.623 71.594,230.550 71.709 C 230.477 71.823,230.201 72.029,229.937 72.165 C 229.673 72.301,229.379 72.582,229.285 72.790 C 229.190 72.997,228.991 73.167,228.843 73.167 C 228.694 73.167,228.441 73.388,228.281 73.658 C 228.122 73.929,227.787 74.362,227.537 74.621 C 227.004 75.175,226.110 76.308,226.020 76.545 C 225.986 76.636,225.705 76.979,225.395 77.307 C 225.086 77.635,224.833 78.000,224.833 78.118 C 224.833 78.236,224.760 78.333,224.670 78.333 C 224.580 78.333,224.459 78.521,224.402 78.750 C 224.344 78.979,224.230 79.167,224.149 79.167 C 224.067 79.167,224.000 79.245,224.000 79.341 C 224.000 79.437,223.813 79.703,223.583 79.932 C 223.354 80.161,223.167 80.423,223.167 80.515 C 223.167 80.606,223.012 80.846,222.822 81.049 C 222.632 81.251,222.435 81.623,222.384 81.875 C 222.333 82.127,222.219 82.333,222.130 82.333 C 221.936 82.333,222.129 80.659,222.350 80.425 C 222.433 80.338,222.500 80.057,222.500 79.800 C 222.500 79.543,222.575 79.333,222.667 79.333 C 222.758 79.333,222.833 79.205,222.833 79.047 C 222.833 78.700,223.339 77.332,223.578 77.036 C 223.673 76.918,223.844 76.717,223.958 76.589 C 224.073 76.462,224.167 76.202,224.167 76.012 C 224.167 75.822,224.242 75.667,224.333 75.667 C 224.425 75.667,224.500 75.517,224.500 75.333 C 224.500 75.150,224.575 75.000,224.667 75.000 C 224.758 75.000,224.833 74.854,224.833 74.677 C 224.833 74.499,224.900 74.312,224.981 74.262 C 225.062 74.212,225.180 73.823,225.244 73.397 C 225.308 72.972,225.495 72.479,225.660 72.302 C 225.987 71.952,226.252 70.264,226.063 69.736 C 225.710 68.747,224.659 68.503,224.081 69.276 M159.998 69.667 C 159.770 69.943,159.523 70.449,159.450 70.792 C 159.144 72.230,159.024 73.142,159.012 74.111 C 159.004 74.776,158.926 75.163,158.792 75.208 C 158.629 75.262,158.583 76.854,158.583 82.417 C 158.583 87.980,158.629 89.571,158.792 89.625 C 158.906 89.663,159.000 89.920,159.000 90.197 C 159.000 90.803,159.460 91.632,159.869 91.761 C 160.033 91.813,160.167 91.926,160.167 92.011 C 160.167 92.097,160.767 92.167,161.500 92.167 C 162.886 92.167,163.500 91.885,163.500 91.250 C 163.500 91.112,163.575 91.000,163.667 91.000 C 163.775 91.000,163.833 88.837,163.833 84.843 C 163.833 80.918,163.773 78.649,163.667 78.583 C 163.571 78.524,163.500 77.640,163.500 76.500 C 163.500 75.360,163.429 74.476,163.333 74.417 C 163.242 74.360,163.167 73.821,163.167 73.218 C 163.167 71.994,162.884 70.842,162.552 70.715 C 162.432 70.669,162.333 70.521,162.333 70.387 C 162.333 69.429,160.630 68.904,159.998 69.667 M293.675 75.725 C 293.574 76.032,293.497 76.500,293.505 76.766 C 293.512 77.032,293.444 77.587,293.353 78.000 C 293.262 78.412,293.134 79.856,293.069 81.208 C 293.004 82.560,292.887 83.667,292.809 83.667 C 292.731 83.667,292.667 84.375,292.667 85.240 C 292.667 86.109,292.592 86.860,292.500 86.917 C 292.408 86.974,292.333 87.724,292.333 88.593 L 292.333 90.167 301.407 90.167 C 306.397 90.167,310.517 90.107,310.563 90.033 C 310.608 89.960,310.699 88.685,310.764 87.200 C 310.829 85.715,310.941 84.500,311.013 84.500 C 311.218 84.500,311.367 83.869,311.250 83.500 C 311.147 83.176,310.998 83.167,305.739 83.167 C 300.323 83.167,299.673 83.094,300.500 82.583 C 300.592 82.527,300.667 82.223,300.667 81.909 L 300.667 81.338 306.118 81.294 L 311.570 81.250 311.690 80.667 C 311.756 80.346,311.864 78.977,311.929 77.625 L 312.047 75.167 302.953 75.167 L 293.859 75.167 293.675 75.725 M312.444 75.278 C 312.107 75.615,312.338 78.524,312.750 79.131 C 312.979 79.468,313.167 79.809,313.167 79.888 C 313.167 80.115,314.176 81.000,314.434 81.000 C 314.562 81.000,314.667 81.075,314.667 81.167 C 314.667 81.274,316.444 81.333,319.667 81.333 L 324.667 81.333 324.667 81.917 C 324.667 82.237,324.592 82.500,324.500 82.500 C 324.408 82.500,324.333 82.650,324.333 82.833 C 324.333 83.161,324.222 83.167,317.917 83.167 L 311.500 83.167 311.500 84.740 C 311.500 85.609,311.425 86.360,311.333 86.417 C 311.239 86.475,311.167 87.307,311.167 88.343 L 311.167 90.167 319.146 90.167 C 326.036 90.167,327.154 90.133,327.333 89.917 C 327.447 89.779,327.757 89.667,328.020 89.667 C 328.284 89.667,328.500 89.592,328.500 89.500 C 328.500 89.408,328.621 89.333,328.770 89.333 C 328.918 89.333,329.350 88.999,329.728 88.589 C 330.747 87.489,330.833 87.371,330.833 87.090 C 330.833 86.949,330.901 86.833,330.984 86.833 C 331.067 86.833,331.176 86.477,331.226 86.042 C 331.276 85.606,331.400 84.575,331.503 83.750 C 331.759 81.677,331.656 77.710,331.331 77.173 C 331.022 76.661,330.726 76.333,330.573 76.333 C 330.509 76.333,330.334 76.197,330.186 76.029 C 329.425 75.171,329.378 75.167,320.669 75.167 C 316.207 75.167,312.506 75.217,312.444 75.278 M332.667 76.917 C 332.667 77.972,332.601 78.667,332.500 78.667 C 332.401 78.667,332.333 79.274,332.333 80.157 C 332.333 80.976,332.258 81.693,332.167 81.750 C 332.075 81.807,331.998 82.505,331.995 83.302 C 331.991 84.310,331.915 84.848,331.745 85.074 C 331.570 85.304,331.500 85.841,331.500 86.939 C 331.500 87.787,331.425 88.527,331.333 88.583 C 331.054 88.756,331.132 89.951,331.430 90.066 C 331.955 90.267,338.422 90.178,338.633 89.967 C 338.755 89.845,338.833 89.255,338.833 88.464 C 338.833 87.748,338.905 87.032,338.993 86.873 C 339.081 86.714,339.201 85.402,339.261 83.958 L 339.368 81.333 344.190 81.333 C 348.433 81.333,349.063 81.300,349.441 81.052 C 350.092 80.625,350.833 79.837,350.833 79.571 C 350.833 79.440,350.907 79.333,350.997 79.333 C 351.087 79.333,351.207 79.146,351.265 78.917 C 351.322 78.688,351.436 78.500,351.518 78.500 C 351.600 78.500,351.667 78.017,351.667 77.427 C 351.667 76.836,351.742 76.307,351.833 76.250 C 352.049 76.117,352.060 78.872,351.845 79.092 C 351.760 79.179,351.650 79.887,351.602 80.667 C 351.266 86.032,351.065 88.141,350.865 88.380 C 350.737 88.534,350.668 88.940,350.698 89.363 L 350.750 90.083 354.417 90.083 L 358.083 90.083 358.132 88.668 C 358.159 87.889,358.253 87.180,358.341 87.093 C 358.428 87.005,358.500 86.305,358.500 85.538 C 358.500 84.520,358.568 84.075,358.750 83.893 C 358.932 83.710,359.000 83.266,359.000 82.248 C 359.000 81.481,359.075 80.807,359.167 80.750 C 359.260 80.693,359.333 79.915,359.333 78.990 C 359.333 77.997,359.400 77.333,359.500 77.333 C 359.594 77.333,359.667 76.861,359.667 76.250 L 359.667 75.167 356.000 75.167 C 352.444 75.167,352.333 75.177,352.333 75.500 C 352.333 75.683,352.276 75.833,352.207 75.833 C 352.137 75.833,351.987 75.683,351.872 75.500 C 351.668 75.173,351.483 75.167,342.165 75.167 L 332.667 75.167 332.667 76.917 M364.614 75.275 C 364.551 75.337,364.498 75.958,364.495 76.653 C 364.491 77.499,364.409 78.024,364.245 78.240 C 364.073 78.468,364.000 78.999,364.000 80.032 C 364.000 80.900,363.932 81.500,363.833 81.500 C 363.735 81.500,363.667 82.100,363.667 82.967 C 363.667 83.773,363.600 84.505,363.518 84.592 C 363.437 84.679,363.317 85.969,363.252 87.458 L 363.134 90.167 366.804 90.167 L 370.474 90.167 370.646 89.625 C 370.741 89.327,370.870 87.825,370.933 86.287 C 370.997 84.748,371.112 83.450,371.191 83.402 C 371.269 83.353,371.333 82.606,371.333 81.740 C 371.333 80.875,371.403 80.167,371.488 80.167 C 371.627 80.167,371.751 78.883,371.875 76.167 L 371.917 75.250 368.323 75.205 C 366.346 75.181,364.677 75.212,364.614 75.275 M123.000 81.083 C 123.000 84.806,122.941 86.833,122.833 86.833 C 122.742 86.833,122.667 86.728,122.667 86.600 C 122.667 86.359,121.854 86.000,121.308 86.000 C 121.139 86.000,121.000 85.888,121.000 85.750 C 121.000 85.612,120.888 85.500,120.750 85.500 C 120.612 85.500,120.500 85.425,120.500 85.333 C 120.500 85.242,120.350 85.167,120.167 85.167 C 119.983 85.167,119.833 85.092,119.833 85.000 C 119.833 84.908,119.721 84.833,119.583 84.833 C 119.446 84.833,119.333 84.763,119.333 84.678 C 119.333 84.592,119.176 84.472,118.983 84.411 C 118.790 84.350,118.362 84.045,118.031 83.733 C 117.701 83.422,117.334 83.167,117.215 83.167 C 117.097 83.167,117.000 83.092,117.000 83.000 C 117.000 82.908,116.888 82.833,116.750 82.833 C 116.612 82.833,116.500 82.753,116.500 82.655 C 116.500 82.444,116.084 82.000,115.886 82.000 C 115.810 82.000,115.411 81.619,114.999 81.153 C 114.587 80.687,113.977 80.012,113.644 79.653 C 112.712 78.648,112.935 77.344,114.040 77.331 C 114.388 77.327,115.497 76.903,115.705 76.695 C 115.812 76.588,116.032 76.500,116.193 76.500 C 117.160 76.500,119.000 76.104,119.000 75.896 C 119.000 75.719,119.324 75.667,120.417 75.667 C 121.250 75.667,121.833 75.598,121.833 75.500 C 121.833 75.408,122.096 75.333,122.417 75.333 L 123.000 75.333 123.000 81.083 M233.200 77.875 C 233.279 79.530,233.136 80.713,232.817 81.056 C 232.642 81.243,232.500 81.498,232.500 81.622 C 232.500 82.051,231.491 84.003,231.163 84.208 C 230.982 84.321,230.833 84.476,230.833 84.552 C 230.833 84.750,230.390 85.167,230.179 85.167 C 230.080 85.167,230.000 85.247,230.000 85.345 C 230.000 85.636,229.615 85.936,228.967 86.150 C 228.633 86.260,228.270 86.459,228.160 86.592 C 228.049 86.725,227.818 86.833,227.646 86.833 C 227.474 86.833,227.333 86.908,227.333 87.000 C 227.333 87.092,227.146 87.167,226.917 87.167 C 226.688 87.167,226.500 87.132,226.500 87.089 C 226.500 86.973,227.368 85.429,227.487 85.333 C 227.753 85.120,228.167 84.311,228.167 84.006 C 228.167 83.819,228.224 83.667,228.294 83.667 C 228.364 83.667,228.550 83.369,228.708 83.005 C 228.866 82.641,229.258 81.998,229.581 81.575 C 229.903 81.153,230.167 80.664,230.167 80.487 C 230.167 80.311,230.242 80.167,230.333 80.167 C 230.425 80.167,230.500 80.089,230.500 79.993 C 230.500 79.897,230.594 79.707,230.708 79.571 C 231.142 79.053,231.262 78.900,231.708 78.303 C 231.960 77.965,232.167 77.615,232.167 77.525 C 232.167 77.337,232.451 77.199,232.875 77.180 C 233.104 77.169,233.174 77.318,233.200 77.875 M177.000 81.471 C 177.000 81.547,176.775 81.576,176.500 81.536 C 176.225 81.495,176.000 81.433,176.000 81.398 C 176.000 81.362,176.225 81.333,176.500 81.333 C 176.775 81.333,177.000 81.395,177.000 81.471 M178.278 81.901 C 178.538 82.030,178.975 82.236,179.250 82.359 C 180.322 82.839,180.245 83.788,179.082 84.434 C 178.768 84.608,178.753 84.574,178.807 83.826 C 178.872 82.905,178.625 82.333,178.161 82.333 C 177.981 82.333,177.833 82.258,177.833 82.167 C 177.833 82.075,177.683 82.000,177.500 82.000 C 177.317 82.000,177.167 81.925,177.167 81.833 C 177.167 81.594,177.729 81.628,178.278 81.901 M170.333 84.333 C 170.333 84.425,170.521 84.500,170.750 84.500 C 170.979 84.500,171.167 84.561,171.167 84.635 C 171.167 84.709,171.485 84.901,171.875 85.061 C 172.265 85.222,172.714 85.424,172.873 85.510 C 173.032 85.596,173.313 85.667,173.498 85.667 C 173.722 85.667,173.833 85.777,173.833 86.000 C 173.833 86.780,169.366 86.340,168.500 85.475 L 167.990 84.964 168.453 84.566 C 168.931 84.155,170.333 83.981,170.333 84.333 " stroke="none" fill="#fbfcfc" fill-rule="evenodd"></path><path id="path1" d="M6.008 61.485 C 5.742 61.982,5.767 90.533,6.033 90.800 C 6.244 91.011,11.385 91.098,11.903 90.899 C 12.137 90.809,12.167 90.088,12.167 84.491 L 12.167 78.184 12.724 77.758 C 13.631 77.067,16.094 77.120,16.821 77.846 L 17.333 78.359 17.333 84.479 C 17.333 89.018,17.385 90.652,17.533 90.800 C 17.744 91.011,22.720 91.097,23.236 90.899 C 23.533 90.785,23.650 75.612,23.355 75.430 C 23.276 75.381,23.161 74.967,23.100 74.511 C 23.040 74.054,22.918 73.635,22.829 73.580 C 22.739 73.525,22.667 73.366,22.667 73.226 C 22.667 72.905,20.902 71.167,20.576 71.167 C 20.442 71.167,20.333 71.092,20.333 71.000 C 20.333 70.908,20.181 70.833,19.995 70.833 C 19.809 70.833,19.613 70.721,19.560 70.583 C 19.479 70.372,18.905 70.333,15.818 70.333 L 12.172 70.333 12.128 65.792 L 12.083 61.250 9.133 61.205 C 6.350 61.162,6.173 61.178,6.008 61.485 M48.006 61.489 C 47.636 62.180,47.781 90.627,48.156 90.827 C 48.806 91.175,53.796 91.047,53.994 90.678 C 54.180 90.329,54.246 62.228,54.062 61.542 C 53.916 60.997,48.295 60.948,48.006 61.489 M26.781 70.441 C 26.590 70.632,26.644 84.744,26.837 84.937 C 26.931 85.031,27.045 85.402,27.091 85.762 C 27.137 86.122,27.248 86.442,27.337 86.472 C 27.427 86.503,27.500 86.709,27.500 86.931 C 27.500 87.152,27.575 87.333,27.667 87.333 C 27.758 87.333,27.833 87.483,27.833 87.667 C 27.833 87.850,27.908 88.000,28.000 88.000 C 28.092 88.000,28.167 88.076,28.167 88.169 C 28.167 88.418,29.382 89.666,29.625 89.666 C 29.740 89.667,29.833 89.779,29.833 89.917 C 29.833 90.072,29.991 90.167,30.250 90.167 C 30.479 90.167,30.667 90.242,30.667 90.333 C 30.667 90.425,30.923 90.500,31.236 90.500 C 31.549 90.500,31.837 90.594,31.875 90.708 C 31.928 90.868,32.921 90.917,36.084 90.917 C 39.246 90.917,40.239 90.868,40.292 90.708 C 40.330 90.594,40.542 90.500,40.764 90.500 C 40.985 90.500,41.167 90.425,41.167 90.333 C 41.167 90.242,41.264 90.167,41.383 90.167 C 42.087 90.167,43.794 87.997,43.943 86.913 C 43.999 86.503,44.110 86.167,44.189 86.167 C 44.269 86.167,44.333 85.873,44.333 85.514 C 44.333 85.140,44.422 84.832,44.542 84.792 C 44.758 84.720,44.957 71.528,44.753 70.708 C 44.630 70.212,38.456 70.106,38.268 70.597 C 38.212 70.742,38.167 73.538,38.167 76.810 C 38.167 84.119,38.395 83.502,35.699 83.495 C 32.817 83.487,33.099 84.198,33.000 76.701 L 32.917 70.417 29.906 70.371 C 28.251 70.346,26.845 70.378,26.781 70.441 M57.704 70.530 C 57.451 70.782,57.405 84.588,57.656 84.743 C 57.742 84.796,57.817 84.970,57.823 85.128 C 57.853 85.897,58.051 86.833,58.184 86.833 C 58.266 86.833,58.333 87.021,58.333 87.250 C 58.333 87.479,58.408 87.667,58.500 87.667 C 58.592 87.667,58.667 87.776,58.667 87.910 C 58.667 88.198,60.053 89.667,60.324 89.667 C 60.426 89.667,60.554 89.779,60.606 89.917 C 60.659 90.054,60.882 90.167,61.101 90.167 C 61.321 90.167,61.500 90.242,61.500 90.333 C 61.500 90.425,61.716 90.500,61.980 90.500 C 62.243 90.500,62.554 90.615,62.671 90.755 C 62.974 91.121,70.371 91.106,70.738 90.739 C 70.869 90.607,71.207 90.500,71.488 90.500 C 71.770 90.500,72.000 90.425,72.000 90.333 C 72.000 90.242,72.095 90.167,72.212 90.167 C 72.328 90.167,72.610 89.977,72.837 89.745 C 73.064 89.513,73.419 89.162,73.625 88.965 C 73.831 88.768,74.000 88.508,74.000 88.387 C 74.000 88.266,74.072 88.167,74.159 88.167 C 74.247 88.167,74.368 87.903,74.428 87.581 C 74.488 87.260,74.604 86.955,74.686 86.905 C 74.767 86.855,74.833 86.663,74.833 86.478 C 74.833 86.294,74.947 86.030,75.085 85.891 C 75.303 85.673,75.331 84.633,75.293 78.028 L 75.250 70.417 72.262 70.371 C 69.984 70.336,69.242 70.376,69.138 70.538 C 69.062 70.654,69.002 73.375,69.004 76.583 C 69.006 79.792,69.006 82.510,69.004 82.625 C 68.991 83.286,68.382 83.500,66.511 83.500 C 63.824 83.500,64.015 84.024,63.960 76.477 L 63.917 70.417 60.912 70.371 C 58.716 70.338,57.852 70.381,57.704 70.530 " stroke="none" fill="#1ce484" fill-rule="evenodd"></path><path id="path2" d="M184.083 5.167 C 184.026 5.260,183.228 5.336,182.282 5.339 C 181.053 5.342,180.494 5.412,180.260 5.589 C 180.055 5.744,179.551 5.833,178.885 5.833 C 178.306 5.833,177.833 5.901,177.833 5.985 C 177.833 6.068,177.440 6.175,176.958 6.223 C 175.360 6.381,174.268 6.613,174.203 6.808 C 174.168 6.913,173.850 7.000,173.496 7.000 C 173.142 7.000,172.807 7.075,172.750 7.167 C 172.693 7.258,172.472 7.333,172.259 7.333 C 172.046 7.333,171.657 7.445,171.394 7.582 C 171.131 7.719,170.748 7.832,170.542 7.832 C 170.335 7.833,170.167 7.908,170.167 8.000 C 170.167 8.092,169.904 8.167,169.583 8.167 C 169.262 8.167,169.000 8.242,169.000 8.333 C 169.000 8.425,168.818 8.500,168.595 8.500 C 168.373 8.500,168.078 8.612,167.940 8.750 C 167.803 8.887,167.502 9.000,167.272 9.000 C 167.041 9.000,166.807 9.075,166.750 9.167 C 166.693 9.258,166.472 9.333,166.258 9.333 C 166.044 9.333,165.826 9.446,165.773 9.583 C 165.720 9.721,165.529 9.833,165.348 9.833 C 165.168 9.833,164.973 9.908,164.917 10.000 C 164.860 10.092,164.668 10.167,164.490 10.167 C 164.312 10.167,164.167 10.242,164.167 10.333 C 164.167 10.425,163.985 10.500,163.762 10.500 C 163.539 10.500,163.245 10.613,163.107 10.750 C 162.970 10.887,162.739 11.000,162.595 11.000 C 162.451 11.000,162.333 11.075,162.333 11.167 C 162.333 11.258,162.188 11.333,162.010 11.333 C 161.832 11.333,161.643 11.404,161.590 11.489 C 161.476 11.673,160.523 12.167,160.282 12.167 C 160.190 12.167,159.869 12.354,159.569 12.583 C 159.268 12.812,158.905 13.000,158.761 13.000 C 158.618 13.000,158.500 13.066,158.500 13.147 C 158.500 13.228,158.369 13.342,158.208 13.401 C 157.671 13.598,156.475 14.295,156.067 14.649 C 155.846 14.842,155.590 15.000,155.499 15.000 C 155.408 15.000,155.333 15.075,155.333 15.167 C 155.333 15.258,155.253 15.333,155.156 15.333 C 155.058 15.333,154.732 15.521,154.431 15.750 C 154.131 15.979,153.826 16.167,153.753 16.167 C 153.681 16.167,153.448 16.354,153.235 16.583 C 153.023 16.813,152.771 17.000,152.675 17.000 C 152.579 17.000,152.500 17.075,152.500 17.167 C 152.500 17.258,152.405 17.333,152.290 17.333 C 152.174 17.333,151.878 17.521,151.631 17.750 C 151.383 17.979,151.122 18.167,151.049 18.168 C 150.976 18.169,150.640 18.431,150.303 18.751 C 149.965 19.071,149.650 19.333,149.603 19.333 C 149.556 19.333,149.307 19.529,149.050 19.768 C 148.793 20.006,148.291 20.438,147.934 20.726 C 147.577 21.014,146.606 21.906,145.778 22.708 C 144.949 23.510,144.213 24.167,144.142 24.167 C 144.070 24.167,143.933 24.315,143.836 24.495 C 143.739 24.676,143.155 25.334,142.538 25.957 C 141.546 26.960,140.375 28.274,139.402 29.477 C 139.227 29.693,139.004 29.956,138.908 30.060 C 138.811 30.165,138.286 30.850,137.741 31.583 C 137.196 32.317,136.694 32.942,136.625 32.972 C 136.556 33.003,136.500 33.097,136.500 33.182 C 136.500 33.268,136.181 33.793,135.792 34.350 C 135.402 34.907,135.008 35.486,134.917 35.637 C 134.825 35.788,134.559 36.212,134.326 36.581 C 133.561 37.789,133.451 38.207,133.371 40.201 C 133.305 41.835,133.242 42.198,132.980 42.435 C 132.324 43.028,132.915 44.500,133.809 44.500 C 134.084 44.500,135.167 43.533,135.167 43.287 C 135.167 42.977,138.978 37.296,140.178 35.816 C 140.505 35.413,141.006 34.746,141.291 34.333 C 141.576 33.921,142.096 33.276,142.446 32.901 C 142.797 32.526,143.369 31.888,143.719 31.484 C 145.275 29.685,148.865 26.171,150.667 24.682 C 152.338 23.302,152.321 23.316,153.083 22.747 C 153.450 22.474,153.825 22.169,153.917 22.070 C 154.008 21.972,154.496 21.604,155.000 21.253 C 155.504 20.902,155.942 20.552,155.972 20.474 C 156.003 20.397,156.102 20.333,156.192 20.333 C 156.282 20.333,156.594 20.160,156.886 19.949 C 157.178 19.737,157.698 19.420,158.042 19.244 C 158.385 19.068,158.667 18.866,158.667 18.795 C 158.667 18.725,158.779 18.667,158.917 18.667 C 159.054 18.667,159.167 18.592,159.167 18.500 C 159.167 18.408,159.270 18.333,159.396 18.333 C 159.523 18.333,159.719 18.221,159.833 18.083 C 159.947 17.946,160.182 17.833,160.354 17.833 C 160.526 17.833,160.667 17.758,160.667 17.667 C 160.667 17.575,160.779 17.500,160.917 17.500 C 161.054 17.500,161.167 17.425,161.167 17.333 C 161.167 17.242,161.319 17.167,161.505 17.167 C 161.691 17.167,161.887 17.054,161.940 16.917 C 161.992 16.779,162.215 16.667,162.434 16.667 C 162.654 16.667,162.833 16.592,162.833 16.500 C 162.833 16.408,162.979 16.333,163.157 16.333 C 163.335 16.333,163.525 16.260,163.581 16.171 C 163.686 16.001,164.227 15.740,165.541 15.226 C 165.976 15.056,166.332 14.860,166.333 14.792 C 166.333 14.723,166.521 14.667,166.750 14.667 C 166.979 14.667,167.167 14.592,167.167 14.500 C 167.167 14.408,167.322 14.333,167.512 14.333 C 167.702 14.333,167.970 14.221,168.107 14.083 C 168.245 13.946,168.539 13.833,168.762 13.833 C 168.985 13.833,169.167 13.758,169.167 13.667 C 169.167 13.575,169.429 13.500,169.750 13.500 C 170.071 13.500,170.333 13.425,170.333 13.333 C 170.333 13.242,170.549 13.167,170.813 13.167 C 171.077 13.167,171.386 13.054,171.500 12.917 C 171.614 12.779,171.961 12.667,172.270 12.667 C 172.580 12.667,172.833 12.592,172.833 12.500 C 172.833 12.408,173.087 12.333,173.396 12.333 C 173.706 12.333,174.053 12.221,174.167 12.083 C 174.286 11.940,174.649 11.833,175.020 11.833 C 175.376 11.833,175.667 11.758,175.667 11.667 C 175.667 11.575,176.037 11.500,176.490 11.500 C 176.943 11.500,177.360 11.425,177.417 11.333 C 177.473 11.242,177.922 11.167,178.415 11.167 C 178.988 11.167,179.399 11.077,179.560 10.917 C 179.740 10.736,180.181 10.667,181.155 10.667 C 181.940 10.667,182.500 10.597,182.500 10.500 C 182.500 10.392,184.636 10.333,188.573 10.333 C 192.443 10.333,194.684 10.394,194.750 10.500 C 194.807 10.592,195.416 10.667,196.105 10.667 C 196.996 10.667,197.429 10.739,197.607 10.917 C 197.767 11.077,198.179 11.167,198.752 11.167 C 199.244 11.167,199.693 11.242,199.750 11.333 C 199.807 11.425,200.224 11.500,200.677 11.500 C 201.129 11.500,201.500 11.575,201.500 11.667 C 201.500 11.758,201.791 11.833,202.146 11.833 C 202.517 11.833,202.881 11.940,203.000 12.083 C 203.114 12.221,203.461 12.333,203.770 12.333 C 204.080 12.333,204.333 12.408,204.333 12.500 C 204.333 12.592,204.625 12.667,204.982 12.667 C 205.405 12.667,205.664 12.754,205.727 12.917 C 205.780 13.054,206.008 13.167,206.235 13.167 C 206.462 13.167,206.693 13.242,206.750 13.333 C 206.807 13.425,207.111 13.500,207.427 13.500 C 207.742 13.500,208.000 13.575,208.000 13.667 C 208.000 13.758,208.155 13.833,208.345 13.833 C 208.535 13.833,208.803 13.946,208.940 14.083 C 209.078 14.221,209.373 14.333,209.595 14.333 C 209.818 14.333,210.000 14.408,210.000 14.500 C 210.000 14.592,210.179 14.667,210.399 14.667 C 210.618 14.667,210.841 14.779,210.894 14.917 C 210.946 15.054,211.108 15.167,211.253 15.167 C 211.398 15.167,211.827 15.317,212.206 15.500 C 212.585 15.683,213.024 15.833,213.180 15.833 C 213.336 15.833,213.508 15.946,213.560 16.083 C 213.613 16.221,213.809 16.333,213.995 16.333 C 214.181 16.333,214.333 16.391,214.333 16.460 C 214.333 16.596,214.540 16.720,215.642 17.248 C 216.022 17.430,216.333 17.636,216.333 17.706 C 216.333 17.776,216.521 17.833,216.750 17.833 C 217.009 17.833,217.167 17.928,217.167 18.083 C 217.167 18.224,217.316 18.333,217.508 18.333 C 217.695 18.333,218.036 18.521,218.265 18.750 C 218.494 18.979,218.791 19.167,218.924 19.167 C 219.058 19.167,219.167 19.242,219.167 19.333 C 219.167 19.425,219.279 19.500,219.417 19.500 C 219.554 19.500,219.667 19.575,219.667 19.667 C 219.667 19.758,219.817 19.833,220.000 19.833 C 220.185 19.833,220.333 19.944,220.333 20.083 C 220.333 20.221,220.435 20.333,220.559 20.333 C 220.683 20.333,220.987 20.521,221.234 20.750 C 221.482 20.979,221.755 21.167,221.842 21.167 C 221.929 21.167,222.000 21.242,222.000 21.333 C 222.000 21.425,222.112 21.500,222.250 21.500 C 222.387 21.500,222.500 21.575,222.500 21.667 C 222.500 21.758,222.615 21.833,222.755 21.833 C 222.896 21.833,223.054 21.946,223.106 22.083 C 223.159 22.221,223.307 22.333,223.434 22.333 C 223.562 22.333,223.667 22.403,223.667 22.489 C 223.667 22.574,223.811 22.690,223.986 22.746 C 224.162 22.801,224.655 23.182,225.082 23.590 C 225.508 23.999,225.889 24.333,225.927 24.333 C 225.966 24.333,226.167 24.479,226.374 24.657 C 227.541 25.660,227.761 25.833,227.875 25.833 C 227.944 25.833,228.000 25.933,228.000 26.055 C 228.000 26.177,228.188 26.377,228.417 26.500 C 228.646 26.623,228.833 26.791,228.833 26.873 C 228.833 27.037,229.253 27.500,229.401 27.500 C 229.558 27.500,232.000 30.016,232.000 30.179 C 232.000 30.264,232.080 30.333,232.179 30.333 C 232.377 30.333,232.833 30.745,232.833 30.924 C 232.833 30.988,233.133 31.339,233.500 31.706 C 233.867 32.073,234.167 32.429,234.167 32.499 C 234.167 32.568,234.504 32.977,234.917 33.408 C 235.329 33.838,235.667 34.261,235.667 34.348 C 235.667 34.435,235.913 34.748,236.215 35.045 C 236.517 35.341,236.936 35.867,237.148 36.213 C 237.360 36.559,237.623 36.934,237.734 37.046 C 237.845 37.158,238.079 37.494,238.254 37.792 C 238.429 38.090,238.619 38.333,238.676 38.333 C 238.733 38.333,238.923 38.632,239.098 38.998 C 239.289 39.396,239.534 39.664,239.708 39.665 C 239.885 39.666,240.000 39.794,240.000 39.990 C 240.000 40.508,240.654 41.494,240.928 41.389 C 241.059 41.339,241.167 41.381,241.167 41.482 C 241.167 41.584,241.094 41.667,241.005 41.667 C 240.916 41.667,240.885 41.774,240.936 41.906 C 240.986 42.038,241.124 42.109,241.243 42.063 C 241.396 42.004,241.433 42.107,241.373 42.424 C 241.303 42.790,241.342 42.855,241.602 42.802 C 241.860 42.749,241.909 42.610,241.872 42.035 C 241.834 41.434,241.874 41.333,242.154 41.333 C 242.334 41.333,242.580 41.202,242.701 41.042 C 242.950 40.713,243.441 40.372,243.875 40.226 C 244.035 40.172,244.167 40.024,244.167 39.897 C 244.167 39.548,244.463 39.621,244.583 40.000 C 244.699 40.366,245.333 40.464,245.333 40.117 C 245.333 39.734,244.924 39.003,244.708 39.001 C 244.594 39.001,244.500 38.850,244.500 38.667 C 244.500 38.483,244.425 38.333,244.333 38.333 C 244.242 38.333,244.167 38.221,244.167 38.083 C 244.167 37.946,244.092 37.833,244.000 37.833 C 243.908 37.833,243.833 37.726,243.833 37.595 C 243.833 37.464,243.740 37.258,243.625 37.137 C 243.510 37.016,243.311 36.712,243.183 36.463 C 243.054 36.213,242.705 35.744,242.408 35.419 C 242.112 35.095,241.821 34.640,241.763 34.408 C 241.705 34.176,241.584 34.031,241.495 34.086 C 241.406 34.141,241.333 34.064,241.333 33.914 C 241.333 33.764,241.127 33.432,240.875 33.176 C 240.237 32.528,239.667 31.789,239.667 31.610 C 239.667 31.392,236.590 27.749,235.461 26.631 C 234.933 26.107,234.500 25.633,234.500 25.578 C 234.500 25.418,234.041 25.000,233.865 25.000 C 233.777 25.000,233.666 24.850,233.619 24.668 C 233.571 24.485,233.393 24.283,233.224 24.219 C 232.886 24.091,232.500 23.752,232.500 23.583 C 232.500 23.410,232.039 23.000,231.845 23.000 C 231.747 23.000,231.667 22.887,231.667 22.750 C 231.667 22.613,231.595 22.500,231.508 22.500 C 231.421 22.500,230.993 22.162,230.556 21.750 C 230.120 21.337,229.666 21.000,229.548 21.000 C 229.430 21.000,229.333 20.887,229.333 20.750 C 229.333 20.612,229.266 20.500,229.183 20.500 C 229.101 20.500,228.771 20.238,228.450 19.917 C 228.129 19.596,227.788 19.333,227.691 19.333 C 227.595 19.333,227.261 19.071,226.950 18.750 C 226.638 18.429,226.297 18.167,226.191 18.167 C 226.086 18.167,226.000 18.092,226.000 18.000 C 226.000 17.908,225.885 17.833,225.745 17.833 C 225.604 17.833,225.446 17.721,225.394 17.583 C 225.341 17.446,225.221 17.333,225.127 17.333 C 225.033 17.333,224.834 17.197,224.686 17.030 C 224.538 16.863,224.156 16.582,223.838 16.405 C 223.520 16.228,223.071 15.915,222.840 15.708 C 222.609 15.502,222.326 15.333,222.210 15.333 C 222.095 15.333,222.000 15.258,222.000 15.167 C 222.000 15.075,221.850 15.000,221.667 15.000 C 221.483 15.000,221.333 14.906,221.333 14.791 C 221.333 14.676,221.090 14.475,220.792 14.346 C 220.494 14.216,220.018 13.935,219.734 13.722 C 219.451 13.508,219.131 13.333,219.024 13.333 C 218.753 13.333,218.111 12.959,217.950 12.708 C 217.877 12.594,217.708 12.500,217.575 12.500 C 217.442 12.500,217.333 12.425,217.333 12.333 C 217.333 12.242,217.146 12.167,216.917 12.167 C 216.688 12.167,216.500 12.092,216.500 12.000 C 216.500 11.908,216.397 11.833,216.270 11.833 C 216.144 11.833,215.947 11.721,215.833 11.583 C 215.719 11.446,215.448 11.333,215.230 11.333 C 215.012 11.333,214.833 11.258,214.833 11.167 C 214.833 11.075,214.691 11.000,214.518 11.000 C 214.344 11.000,214.159 10.887,214.106 10.750 C 214.054 10.612,213.821 10.500,213.589 10.500 C 213.357 10.500,213.167 10.425,213.167 10.333 C 213.167 10.242,213.042 10.167,212.889 10.167 C 212.515 10.167,211.333 9.636,211.333 9.468 C 211.333 9.394,211.113 9.333,210.843 9.333 C 210.574 9.333,210.307 9.258,210.250 9.167 C 210.193 9.075,209.972 9.000,209.758 9.000 C 209.544 9.000,209.326 8.887,209.273 8.750 C 209.217 8.604,208.967 8.500,208.672 8.500 C 208.394 8.500,208.167 8.425,208.167 8.333 C 208.167 8.242,207.991 8.167,207.776 8.167 C 207.561 8.167,207.149 8.049,206.861 7.906 C 206.573 7.762,206.270 7.686,206.188 7.737 C 206.105 7.788,205.945 7.718,205.832 7.581 C 205.719 7.445,205.373 7.333,205.063 7.333 C 204.753 7.333,204.500 7.258,204.500 7.167 C 204.500 7.075,204.172 7.000,203.770 7.000 C 203.325 7.000,202.960 6.903,202.833 6.750 C 202.707 6.597,202.341 6.500,201.896 6.500 C 201.495 6.500,201.167 6.425,201.167 6.333 C 201.167 6.242,200.759 6.167,200.260 6.167 C 199.761 6.167,199.313 6.102,199.264 6.022 C 199.214 5.942,198.649 5.825,198.008 5.762 C 197.366 5.699,196.797 5.577,196.744 5.490 C 196.691 5.404,195.864 5.333,194.907 5.333 C 193.858 5.333,193.167 5.267,193.167 5.167 C 193.167 5.060,191.559 5.000,188.677 5.000 C 185.863 5.000,184.148 5.062,184.083 5.167 M245.512 40.542 C 245.505 40.794,245.575 41.000,245.667 41.000 C 245.862 41.000,245.862 40.872,245.667 40.417 C 245.540 40.121,245.522 40.136,245.512 40.542 " stroke="none" fill="#0dccf9" fill-rule="evenodd"></path><path id="path3" d="M381.667 69.986 C 381.667 70.443,381.584 70.833,381.480 70.868 C 381.374 70.903,381.199 71.761,381.076 72.840 C 380.957 73.891,380.854 74.769,380.847 74.792 C 380.839 74.815,379.793 74.833,378.522 74.833 L 376.210 74.833 376.107 75.458 C 376.050 75.802,376.003 76.670,376.002 77.387 C 376.001 78.297,375.928 78.763,375.760 78.931 C 375.472 79.218,375.256 80.493,375.411 80.984 C 375.517 81.317,375.632 81.333,377.852 81.333 L 380.181 81.333 380.065 84.333 L 379.949 87.333 382.691 87.333 C 385.723 87.333,385.833 87.298,385.833 86.333 C 385.833 86.003,385.903 85.662,385.989 85.575 C 386.074 85.488,386.178 84.742,386.221 83.917 C 386.263 83.092,386.352 82.173,386.418 81.875 L 386.538 81.333 388.932 81.333 C 391.282 81.333,391.328 81.326,391.403 80.958 C 391.569 80.135,391.833 77.087,391.833 75.994 L 391.833 74.833 389.417 74.833 L 387.000 74.833 387.000 73.931 C 387.000 73.356,387.076 73.003,387.208 72.959 C 387.407 72.893,387.662 70.102,387.529 69.437 C 387.482 69.200,387.119 69.167,384.571 69.167 L 381.667 69.167 381.667 69.986 " stroke="none" fill="#fbb404" fill-rule="evenodd"></path><path id="path4" d="M244.167 39.897 C 244.167 40.024,244.035 40.172,243.875 40.226 C 243.441 40.372,242.950 40.713,242.701 41.042 C 242.580 41.202,242.327 41.333,242.139 41.333 C 241.836 41.333,241.809 41.403,241.908 41.929 C 241.971 42.263,241.946 42.614,241.852 42.728 C 241.644 42.978,242.288 44.333,242.615 44.333 C 242.735 44.333,242.833 44.487,242.833 44.676 C 242.833 45.123,243.412 46.386,243.742 46.660 C 243.884 46.778,244.000 46.998,244.000 47.150 C 244.000 47.433,244.549 48.000,244.823 48.000 C 244.907 48.000,245.091 48.115,245.232 48.256 C 245.462 48.486,245.519 48.481,245.791 48.209 C 245.958 48.042,246.354 47.771,246.672 47.607 C 247.778 47.036,247.943 46.913,247.875 46.707 C 247.837 46.593,247.924 46.500,248.069 46.500 C 248.222 46.500,248.333 46.640,248.333 46.833 C 248.333 47.199,248.456 47.242,248.826 47.008 C 249.060 46.860,248.844 46.125,248.480 45.833 C 248.333 45.715,247.667 44.221,247.667 44.009 C 247.667 43.912,247.592 43.833,247.500 43.833 C 247.408 43.833,247.333 43.721,247.333 43.583 C 247.333 43.446,247.258 43.333,247.167 43.333 C 247.075 43.333,247.000 43.193,247.000 43.020 C 247.000 42.848,246.887 42.614,246.750 42.500 C 246.612 42.386,246.500 42.228,246.500 42.148 C 246.500 42.011,246.165 41.558,245.708 41.077 C 245.594 40.956,245.500 40.712,245.500 40.535 C 245.500 40.285,245.411 40.230,245.100 40.289 C 244.801 40.347,244.671 40.277,244.589 40.016 C 244.464 39.625,244.167 39.541,244.167 39.897 " stroke="none" fill="#98fcfc" fill-rule="evenodd"></path></g></svg>