<svg id="svg" version="1.1" xmlns="http://www.w3.org/2000/svg" xmlns:xlink="http://www.w3.org/1999/xlink" width="400" height="144.34163701067615" viewBox="0, 0, 400,144.34163701067615"><g id="svgg"><path id="path0" d="M125.250 51.500 C 125.193 51.592,124.776 51.667,124.323 51.667 C 123.871 51.667,123.500 51.742,123.500 51.833 C 123.500 51.925,123.237 52.000,122.917 52.000 C 122.596 52.000,122.333 52.065,122.333 52.145 C 122.333 52.225,121.980 52.330,121.547 52.379 C 121.115 52.427,120.733 52.550,120.700 52.650 C 120.666 52.751,120.527 52.833,120.390 52.833 C 120.147 52.833,119.167 53.701,119.167 53.916 C 119.167 53.975,119.054 54.136,118.917 54.274 C 118.739 54.451,118.667 54.884,118.667 55.762 C 118.667 56.751,118.717 57.000,118.917 57.000 C 119.054 57.000,119.167 57.075,119.167 57.167 C 119.167 57.444,122.312 57.379,122.595 57.095 C 123.105 56.585,122.730 55.667,122.012 55.667 C 121.428 55.667,121.630 55.383,122.292 55.274 C 122.635 55.217,123.460 55.170,124.125 55.169 C 124.818 55.167,125.333 55.096,125.333 55.000 C 125.333 54.906,125.806 54.833,126.417 54.833 C 127.013 54.833,127.500 54.897,127.500 54.974 C 127.500 55.051,128.601 55.162,129.946 55.220 C 131.292 55.279,132.469 55.403,132.563 55.496 C 132.657 55.590,133.093 55.667,133.533 55.667 C 133.973 55.667,134.333 55.736,134.333 55.820 C 134.333 55.904,134.821 56.026,135.417 56.089 C 136.012 56.153,136.500 56.272,136.500 56.353 C 136.500 56.434,136.762 56.500,137.083 56.500 C 137.404 56.500,137.667 56.568,137.667 56.651 C 137.667 56.734,138.042 56.854,138.500 56.917 C 138.958 56.980,139.333 57.099,139.333 57.182 C 139.333 57.265,139.521 57.333,139.750 57.333 C 139.979 57.333,140.167 57.408,140.167 57.500 C 140.167 57.592,140.392 57.667,140.667 57.667 C 140.942 57.667,141.167 57.741,141.167 57.831 C 141.167 57.922,141.467 58.044,141.833 58.103 C 142.200 58.161,142.500 58.256,142.500 58.314 C 142.500 58.454,143.287 58.779,143.958 58.916 C 144.256 58.977,144.500 59.096,144.500 59.180 C 144.500 59.264,144.612 59.333,144.750 59.333 C 144.887 59.333,145.000 59.408,145.000 59.500 C 145.000 59.592,145.150 59.667,145.333 59.667 C 145.517 59.667,145.667 59.736,145.667 59.820 C 145.667 59.904,145.910 60.027,146.208 60.092 C 146.506 60.158,146.844 60.345,146.959 60.509 C 147.073 60.673,147.392 60.856,147.667 60.917 C 147.942 60.977,148.167 61.096,148.167 61.180 C 148.167 61.264,148.309 61.333,148.482 61.333 C 148.656 61.333,148.841 61.447,148.895 61.586 C 148.948 61.725,149.162 61.912,149.371 62.002 C 149.880 62.222,150.313 62.507,150.823 62.958 C 151.056 63.165,151.307 63.333,151.381 63.333 C 151.455 63.333,151.690 63.521,151.902 63.750 C 152.114 63.979,152.406 64.167,152.550 64.167 C 152.693 64.167,152.857 64.313,152.914 64.491 C 152.971 64.670,153.159 64.861,153.333 64.917 C 153.507 64.972,153.696 65.163,153.753 65.342 C 153.809 65.521,153.922 65.667,154.002 65.667 C 154.183 65.667,155.833 67.329,155.833 67.511 C 155.833 67.584,155.983 67.692,156.167 67.750 C 156.350 67.808,156.500 67.995,156.500 68.166 C 156.500 68.336,156.688 68.623,156.917 68.804 C 157.146 68.984,157.333 69.252,157.333 69.399 C 157.333 69.546,157.400 69.667,157.482 69.667 C 157.564 69.667,157.678 69.854,157.735 70.083 C 157.793 70.313,157.913 70.500,158.003 70.500 C 158.093 70.500,158.167 70.612,158.167 70.750 C 158.167 70.887,158.242 71.000,158.333 71.000 C 158.425 71.000,158.500 71.169,158.501 71.375 C 158.502 71.581,158.614 71.965,158.751 72.227 C 158.888 72.490,159.000 72.884,159.000 73.102 C 159.000 73.321,159.075 73.500,159.167 73.500 C 159.265 73.500,159.333 74.111,159.333 75.000 C 159.333 75.889,159.265 76.500,159.167 76.500 C 159.075 76.500,158.998 76.669,158.995 76.875 C 158.992 77.081,158.879 77.396,158.745 77.574 C 158.610 77.751,158.500 78.033,158.500 78.199 C 158.500 78.364,158.425 78.500,158.333 78.500 C 158.242 78.500,158.167 78.578,158.167 78.674 C 158.167 78.851,157.921 79.191,157.534 79.550 C 156.670 80.349,156.187 80.711,155.667 80.950 C 155.529 81.013,155.318 81.163,155.196 81.282 C 155.075 81.402,154.869 81.500,154.738 81.500 C 154.607 81.500,154.500 81.575,154.500 81.667 C 154.500 81.758,154.313 81.833,154.083 81.833 C 153.854 81.833,153.667 81.908,153.667 82.000 C 153.667 82.092,153.517 82.167,153.333 82.167 C 153.150 82.167,153.000 82.233,153.000 82.314 C 153.000 82.395,152.589 82.513,152.086 82.576 C 151.583 82.639,151.129 82.760,151.076 82.845 C 151.023 82.930,150.691 83.000,150.337 83.000 C 149.971 83.000,149.665 83.090,149.625 83.208 C 149.526 83.505,141.472 83.500,141.373 83.203 C 141.336 83.091,141.124 83.000,140.903 83.000 L 140.500 83.000 140.500 79.417 C 140.500 77.139,140.439 75.833,140.333 75.833 C 140.237 75.833,140.167 75.306,140.167 74.583 L 140.167 73.333 141.573 73.333 C 142.347 73.333,143.020 73.397,143.068 73.475 C 143.116 73.553,143.812 73.667,144.615 73.729 C 145.418 73.791,146.148 73.914,146.237 74.004 C 146.327 74.093,146.606 74.167,146.857 74.167 C 147.108 74.167,147.355 74.233,147.405 74.314 C 147.455 74.395,147.909 74.513,148.414 74.576 C 148.920 74.639,149.333 74.760,149.333 74.845 C 149.333 74.930,149.446 75.000,149.583 75.000 C 150.007 75.000,149.882 75.751,149.417 76.000 C 149.188 76.123,149.000 76.277,149.000 76.343 C 149.000 76.410,148.813 76.511,148.583 76.568 C 148.025 76.709,147.951 77.833,148.500 77.833 C 148.683 77.833,148.833 77.908,148.833 78.000 C 148.833 78.098,149.417 78.167,150.250 78.167 C 151.083 78.167,151.667 78.098,151.667 78.000 C 151.667 77.908,151.749 77.833,151.850 77.833 C 153.263 77.833,154.511 73.697,153.322 72.954 C 153.145 72.844,153.000 72.653,153.000 72.530 C 153.000 72.307,152.120 71.333,151.918 71.333 C 151.858 71.333,151.697 71.221,151.560 71.083 C 151.422 70.946,151.165 70.833,150.988 70.833 C 150.811 70.833,150.667 70.758,150.667 70.667 C 150.667 70.575,150.479 70.500,150.250 70.500 C 150.021 70.500,149.833 70.425,149.833 70.333 C 149.833 70.242,149.652 70.167,149.431 70.167 C 149.209 70.167,149.003 70.092,148.972 70.002 C 148.942 69.911,148.448 69.788,147.875 69.728 C 147.302 69.668,146.833 69.555,146.833 69.476 C 146.833 69.398,146.500 69.333,146.093 69.333 C 145.686 69.333,145.307 69.258,145.250 69.167 C 145.189 69.068,144.146 69.000,142.683 69.000 L 140.218 69.000 140.109 66.716 C 140.049 65.460,139.924 64.358,139.833 64.266 C 139.742 64.175,139.667 63.890,139.667 63.633 C 139.667 63.377,139.592 63.167,139.500 63.167 C 139.408 63.167,139.333 63.017,139.333 62.833 C 139.333 62.650,139.258 62.500,139.167 62.500 C 139.075 62.500,139.000 62.395,139.000 62.268 C 139.000 61.892,138.065 61.000,137.671 61.000 C 137.248 61.000,136.833 61.365,136.833 61.738 C 136.833 61.882,136.758 62.000,136.667 62.000 C 136.575 62.000,136.500 62.181,136.500 62.403 C 136.500 62.624,136.422 62.832,136.326 62.863 C 136.219 62.899,136.114 64.141,136.050 66.127 L 135.948 69.333 135.391 69.333 C 135.084 69.333,134.833 69.398,134.833 69.476 C 134.833 69.555,134.290 69.669,133.625 69.731 C 132.960 69.792,132.392 69.915,132.361 70.005 C 132.331 70.094,132.129 70.167,131.913 70.167 C 131.696 70.167,131.473 70.242,131.417 70.333 C 131.360 70.425,131.131 70.500,130.907 70.500 C 130.683 70.500,130.500 70.565,130.500 70.645 C 130.500 70.725,130.200 70.839,129.833 70.897 C 129.467 70.956,129.167 71.078,129.167 71.169 C 129.167 71.259,129.017 71.333,128.833 71.333 C 128.650 71.333,128.500 71.402,128.500 71.487 C 128.500 71.571,128.275 71.690,128.000 71.750 C 127.725 71.810,127.500 71.929,127.500 72.013 C 127.500 72.098,127.388 72.167,127.250 72.167 C 127.112 72.167,126.681 72.485,126.292 72.875 L 125.583 73.583 125.583 75.306 C 125.583 76.892,125.613 77.054,125.958 77.333 C 126.165 77.500,126.333 77.732,126.333 77.849 C 126.333 77.966,126.802 78.532,127.375 79.106 C 128.830 80.564,128.799 80.532,129.285 81.042 C 129.525 81.294,129.854 81.500,130.016 81.500 C 130.178 81.500,130.357 81.646,130.414 81.825 C 130.471 82.003,130.682 82.202,130.884 82.265 C 131.085 82.329,131.371 82.520,131.520 82.691 C 131.668 82.861,131.912 83.000,132.061 83.000 C 132.211 83.000,132.333 83.067,132.333 83.149 C 132.333 83.230,132.521 83.344,132.750 83.402 C 132.979 83.459,133.167 83.580,133.167 83.670 C 133.167 83.760,133.279 83.833,133.417 83.833 C 133.554 83.833,133.667 83.900,133.667 83.981 C 133.667 84.063,133.929 84.179,134.250 84.239 C 134.571 84.299,134.833 84.420,134.833 84.508 C 134.833 84.595,134.914 84.667,135.012 84.667 C 135.350 84.667,135.667 85.144,135.667 85.655 C 135.667 85.936,135.742 86.167,135.833 86.167 C 135.925 86.167,136.000 86.536,136.000 86.988 C 136.000 87.496,136.095 87.905,136.250 88.060 C 136.387 88.197,136.500 88.390,136.500 88.488 C 136.500 88.586,136.650 88.667,136.833 88.667 C 137.017 88.667,137.167 88.742,137.167 88.833 C 137.167 88.929,137.674 89.000,138.355 89.000 C 139.573 89.000,140.167 88.691,140.167 88.058 C 140.167 87.934,140.242 87.833,140.333 87.833 C 140.425 87.833,140.500 87.571,140.500 87.250 C 140.500 86.929,140.575 86.667,140.667 86.667 C 140.758 86.667,140.833 86.742,140.833 86.833 C 140.833 86.925,141.118 87.000,141.467 87.000 C 141.815 87.000,142.194 87.094,142.308 87.208 C 142.464 87.364,143.619 87.417,146.917 87.417 C 150.214 87.417,151.369 87.364,151.525 87.208 C 151.640 87.094,152.018 87.000,152.367 87.000 C 152.715 87.000,153.000 86.925,153.000 86.833 C 153.000 86.742,153.262 86.667,153.583 86.667 C 153.904 86.667,154.167 86.592,154.167 86.500 C 154.167 86.408,154.324 86.333,154.516 86.333 C 154.709 86.333,155.121 86.221,155.433 86.083 C 155.745 85.946,156.255 85.721,156.567 85.583 C 156.879 85.446,157.216 85.333,157.317 85.333 C 157.418 85.333,157.500 85.258,157.500 85.167 C 157.500 85.075,157.622 85.000,157.772 85.000 C 157.922 85.000,158.166 84.861,158.314 84.691 C 158.462 84.520,158.764 84.324,158.986 84.254 C 159.207 84.184,159.567 83.948,159.785 83.730 C 160.003 83.512,160.291 83.333,160.424 83.333 C 160.558 83.333,160.667 83.218,160.667 83.077 C 160.667 82.936,161.004 82.493,161.417 82.092 C 161.829 81.691,162.167 81.281,162.167 81.182 C 162.167 81.082,162.240 81.000,162.330 81.000 C 162.420 81.000,162.541 80.812,162.598 80.583 C 162.656 80.354,162.770 80.167,162.851 80.167 C 162.933 80.167,163.000 80.017,163.000 79.833 C 163.000 79.650,163.069 79.500,163.153 79.500 C 163.238 79.500,163.356 79.276,163.416 79.002 C 163.476 78.728,163.595 78.461,163.679 78.409 C 163.764 78.356,163.833 78.093,163.833 77.823 C 163.833 77.554,163.908 77.333,164.000 77.333 C 164.103 77.333,164.167 76.417,164.167 74.917 C 164.167 73.417,164.103 72.500,164.000 72.500 C 163.908 72.500,163.833 72.237,163.833 71.917 C 163.833 71.596,163.762 71.333,163.674 71.333 C 163.587 71.333,163.466 71.071,163.406 70.750 C 163.345 70.429,163.230 70.167,163.148 70.167 C 163.067 70.167,163.000 70.054,163.000 69.917 C 163.000 69.779,162.933 69.667,162.852 69.667 C 162.770 69.667,162.655 69.404,162.594 69.083 C 162.534 68.762,162.413 68.500,162.326 68.500 C 162.238 68.500,162.167 68.404,162.167 68.287 C 162.167 68.170,162.017 67.965,161.833 67.833 C 161.650 67.701,161.500 67.470,161.500 67.320 C 161.500 67.170,161.313 66.906,161.083 66.734 C 160.854 66.562,160.667 66.326,160.667 66.210 C 160.667 66.094,160.367 65.708,160.000 65.353 C 159.633 64.997,159.333 64.648,159.333 64.577 C 159.333 64.436,157.388 62.500,157.246 62.500 C 157.197 62.500,156.772 62.125,156.301 61.667 C 155.831 61.208,155.363 60.833,155.262 60.833 C 155.162 60.833,154.938 60.646,154.766 60.417 C 154.594 60.188,154.322 60.000,154.161 60.000 C 154.000 60.000,153.824 59.884,153.770 59.742 C 153.716 59.600,153.445 59.405,153.169 59.309 C 152.893 59.213,152.667 59.066,152.667 58.984 C 152.667 58.901,152.582 58.833,152.478 58.833 C 152.374 58.833,152.168 58.694,152.020 58.524 C 151.871 58.354,151.581 58.161,151.375 58.096 C 151.169 58.031,151.000 57.908,151.000 57.822 C 151.000 57.737,150.887 57.667,150.750 57.667 C 150.612 57.667,150.500 57.600,150.500 57.519 C 150.500 57.437,150.237 57.321,149.917 57.261 C 149.596 57.201,149.333 57.080,149.333 56.992 C 149.333 56.905,149.221 56.833,149.083 56.833 C 148.946 56.833,148.833 56.758,148.833 56.667 C 148.833 56.575,148.683 56.500,148.500 56.500 C 148.317 56.500,148.167 56.426,148.167 56.337 C 148.167 56.247,147.979 56.126,147.750 56.068 C 147.521 56.011,147.333 55.897,147.333 55.815 C 147.333 55.734,147.146 55.667,146.917 55.667 C 146.688 55.667,146.500 55.600,146.500 55.519 C 146.500 55.437,146.237 55.321,145.917 55.261 C 145.596 55.201,145.333 55.080,145.333 54.992 C 145.333 54.905,145.146 54.833,144.917 54.833 C 144.688 54.833,144.500 54.758,144.500 54.667 C 144.500 54.575,144.350 54.500,144.167 54.500 C 143.983 54.500,143.833 54.435,143.833 54.355 C 143.833 54.275,143.533 54.161,143.167 54.103 C 142.800 54.044,142.500 53.922,142.500 53.831 C 142.500 53.741,142.313 53.667,142.083 53.667 C 141.854 53.667,141.667 53.599,141.667 53.516 C 141.667 53.433,141.292 53.313,140.834 53.250 C 140.375 53.187,139.958 53.067,139.907 52.984 C 139.856 52.901,139.631 52.833,139.407 52.833 C 139.183 52.833,139.000 52.764,139.000 52.680 C 139.000 52.596,138.512 52.474,137.917 52.411 C 137.321 52.347,136.833 52.228,136.833 52.147 C 136.833 52.066,136.496 52.000,136.083 52.000 C 135.671 52.000,135.333 51.925,135.333 51.833 C 135.333 51.741,134.889 51.667,134.333 51.667 C 133.778 51.667,133.333 51.593,133.333 51.500 C 133.333 51.394,131.892 51.333,129.343 51.333 C 126.863 51.333,125.314 51.396,125.250 51.500 M241.639 52.958 C 241.608 53.027,241.152 53.299,240.625 53.562 C 240.098 53.825,239.667 54.117,239.667 54.212 C 239.667 54.307,239.521 54.254,239.344 54.093 C 238.969 53.753,238.539 53.890,238.874 54.242 C 239.463 54.863,239.667 55.209,239.667 55.590 C 239.667 55.821,239.779 56.054,239.917 56.106 C 240.054 56.159,240.167 56.344,240.167 56.518 C 240.167 56.691,240.242 56.833,240.333 56.833 C 240.425 56.833,240.500 56.908,240.500 56.999 C 240.500 57.283,241.072 58.500,241.206 58.500 C 241.276 58.500,241.333 58.688,241.333 58.917 C 241.333 59.146,241.400 59.333,241.481 59.333 C 241.563 59.333,241.679 59.596,241.739 59.917 C 241.799 60.237,241.920 60.500,242.008 60.500 C 242.095 60.500,242.167 60.612,242.167 60.750 C 242.167 61.010,244.962 61.132,245.570 60.899 C 245.862 60.787,245.950 59.667,245.667 59.667 C 245.575 59.667,245.500 59.517,245.500 59.334 C 245.500 58.924,244.968 57.667,244.794 57.667 C 244.724 57.667,244.667 57.554,244.667 57.417 C 244.667 57.279,244.592 57.167,244.500 57.167 C 244.408 57.167,244.333 57.017,244.333 56.834 C 244.333 56.424,243.801 55.167,243.627 55.167 C 243.557 55.167,243.500 55.014,243.500 54.828 C 243.500 54.642,243.387 54.446,243.250 54.394 C 243.112 54.341,243.000 54.156,243.000 53.982 C 243.000 53.809,242.925 53.667,242.833 53.667 C 242.742 53.667,242.667 53.554,242.667 53.417 C 242.667 53.278,242.519 53.167,242.333 53.167 C 242.150 53.167,242.000 53.092,242.000 53.000 C 242.000 52.806,241.721 52.774,241.639 52.958 M169.000 54.667 C 169.000 54.758,168.813 54.833,168.583 54.833 C 168.354 54.833,168.167 54.900,168.167 54.981 C 168.167 55.063,167.904 55.179,167.583 55.239 C 167.262 55.299,167.000 55.420,167.000 55.508 C 167.000 55.595,166.887 55.667,166.750 55.667 C 166.612 55.667,166.500 55.742,166.500 55.833 C 166.500 55.925,166.359 56.000,166.187 56.000 C 166.015 56.000,165.781 56.112,165.667 56.250 C 165.553 56.387,165.396 56.500,165.318 56.500 C 165.071 56.500,163.000 58.634,163.000 58.888 C 163.000 59.022,162.887 59.174,162.750 59.227 C 162.612 59.280,162.500 59.513,162.500 59.745 C 162.500 59.977,162.425 60.167,162.333 60.167 C 162.233 60.167,162.167 60.861,162.167 61.917 C 162.167 62.879,162.234 63.667,162.315 63.667 C 162.397 63.667,162.511 63.854,162.568 64.083 C 162.626 64.313,162.747 64.500,162.837 64.500 C 162.926 64.500,163.000 64.612,163.000 64.750 C 163.000 64.887,163.075 65.000,163.167 65.000 C 163.259 65.000,163.333 65.436,163.333 65.974 C 163.333 67.562,164.767 68.371,165.691 67.306 C 165.979 66.973,166.170 66.943,168.127 66.925 C 170.143 66.905,171.500 66.654,171.500 66.300 C 171.500 66.227,171.650 66.167,171.833 66.167 C 172.017 66.167,172.167 66.098,172.167 66.013 C 172.167 65.929,172.392 65.810,172.667 65.750 C 172.942 65.690,173.167 65.571,173.167 65.487 C 173.167 65.402,173.317 65.333,173.500 65.333 C 173.683 65.333,173.833 65.270,173.833 65.193 C 173.833 65.116,174.096 64.911,174.418 64.738 C 174.739 64.565,175.044 64.290,175.096 64.128 C 175.147 63.966,175.256 63.833,175.337 63.833 C 175.468 63.833,176.740 62.595,177.292 61.932 C 177.406 61.794,177.500 61.534,177.500 61.354 C 177.500 61.175,177.594 60.997,177.708 60.958 C 177.855 60.909,177.917 60.430,177.917 59.333 C 177.917 58.237,177.855 57.757,177.708 57.708 C 177.594 57.670,177.500 57.565,177.500 57.474 C 177.500 57.294,177.085 56.833,176.922 56.833 C 176.865 56.833,176.667 56.692,176.481 56.519 C 176.296 56.345,175.922 56.159,175.651 56.105 C 175.380 56.051,174.969 55.818,174.738 55.587 C 174.507 55.356,174.209 55.167,174.076 55.167 C 173.942 55.167,173.833 55.092,173.833 55.000 C 173.833 54.908,173.683 54.833,173.500 54.833 C 173.317 54.833,173.167 54.758,173.167 54.667 C 173.167 54.564,172.361 54.500,171.083 54.500 C 169.806 54.500,169.000 54.564,169.000 54.667 M174.333 58.655 C 174.333 58.740,174.502 58.834,174.708 58.863 C 175.788 59.017,174.671 61.659,173.349 62.078 C 173.157 62.139,173.000 62.259,173.000 62.345 C 173.000 62.430,172.850 62.500,172.667 62.500 C 172.483 62.500,172.333 62.574,172.333 62.665 C 172.333 62.755,172.033 62.877,171.667 62.936 C 171.300 62.995,171.000 63.108,171.000 63.188 C 171.000 63.268,170.662 63.333,170.250 63.333 C 169.837 63.333,169.500 63.408,169.500 63.500 C 169.500 63.592,169.165 63.667,168.755 63.667 C 168.117 63.667,168.026 63.625,168.117 63.375 C 168.266 62.964,171.155 60.124,171.708 59.843 C 171.960 59.715,172.167 59.548,172.167 59.472 C 172.167 59.396,172.279 59.333,172.417 59.333 C 172.554 59.333,172.667 59.259,172.667 59.169 C 172.667 59.078,172.967 58.956,173.333 58.897 C 173.700 58.839,174.000 58.725,174.000 58.645 C 174.000 58.565,174.075 58.500,174.167 58.500 C 174.258 58.500,174.333 58.570,174.333 58.655 M167.333 58.989 C 167.333 59.074,167.187 59.191,167.009 59.247 C 166.830 59.304,166.637 59.497,166.581 59.675 C 166.524 59.854,166.411 60.000,166.330 60.000 C 166.194 60.000,165.722 60.449,165.208 61.068 C 165.094 61.206,165.000 61.397,165.000 61.493 C 165.000 61.589,164.925 61.667,164.833 61.667 C 164.742 61.667,164.667 61.554,164.667 61.417 C 164.667 61.159,164.757 61.036,165.752 59.944 C 166.072 59.592,166.333 59.241,166.333 59.164 C 166.333 59.043,166.498 58.985,167.208 58.856 C 167.277 58.844,167.333 58.903,167.333 58.989 M243.394 65.953 C 243.455 67.027,243.579 67.979,243.669 68.069 C 243.760 68.160,243.833 68.701,243.833 69.273 C 243.833 69.846,243.908 70.360,244.000 70.417 C 244.092 70.473,244.167 71.078,244.167 71.760 L 244.167 73.000 239.988 73.000 C 235.036 73.000,235.333 72.881,235.333 74.871 C 235.333 76.791,235.003 76.667,240.117 76.667 L 244.500 76.667 244.500 79.083 C 244.500 80.583,244.437 81.500,244.333 81.500 C 244.231 81.500,244.167 82.278,244.167 83.500 L 244.167 85.500 245.762 85.500 C 247.797 85.500,247.833 85.466,247.833 83.595 C 247.833 82.754,247.902 82.167,248.000 82.167 C 248.104 82.167,248.167 81.140,248.167 79.419 L 248.167 76.672 252.625 76.628 L 257.083 76.583 257.133 75.167 C 257.160 74.387,257.139 73.581,257.088 73.375 L 256.994 73.000 252.413 73.000 L 247.833 73.000 247.833 71.333 C 247.833 70.417,247.769 69.667,247.691 69.667 C 247.613 69.667,247.497 68.785,247.433 67.708 C 247.369 66.631,247.245 65.725,247.158 65.694 C 247.071 65.664,247.000 65.316,247.000 64.921 C 247.000 64.030,246.930 64.000,244.878 64.000 L 243.283 64.000 243.394 65.953 M195.872 67.292 C 195.735 67.586,195.720 67.768,195.830 67.804 C 195.923 67.836,196.000 68.225,196.000 68.671 C 196.000 69.116,196.075 69.527,196.167 69.583 C 196.258 69.640,196.333 69.907,196.333 70.177 C 196.333 70.446,196.401 70.667,196.484 70.667 C 196.566 70.667,196.686 71.117,196.750 71.667 C 196.814 72.217,196.934 72.667,197.016 72.667 C 197.099 72.667,197.167 72.923,197.167 73.236 C 197.167 73.549,197.239 73.831,197.327 73.861 C 197.415 73.892,197.538 74.535,197.601 75.292 C 197.663 76.048,197.779 76.667,197.857 76.667 C 197.936 76.667,198.000 77.117,198.000 77.667 C 198.000 78.688,197.786 78.999,197.598 78.250 C 197.541 78.021,197.420 77.833,197.330 77.833 C 197.240 77.833,197.167 77.721,197.167 77.583 C 197.167 77.446,197.093 77.333,197.003 77.333 C 196.913 77.333,196.793 77.146,196.735 76.917 C 196.678 76.688,196.564 76.500,196.482 76.500 C 196.400 76.500,196.333 76.388,196.333 76.251 C 196.333 76.115,196.183 75.909,196.000 75.795 C 195.817 75.680,195.667 75.464,195.667 75.314 C 195.667 75.164,195.554 74.947,195.417 74.833 C 195.279 74.719,195.167 74.523,195.167 74.396 C 195.167 74.270,195.103 74.167,195.026 74.167 C 194.949 74.167,194.744 73.904,194.571 73.582 C 194.398 73.261,194.124 72.956,193.962 72.904 C 193.799 72.853,193.667 72.675,193.667 72.509 C 193.667 72.343,193.554 72.114,193.417 72.000 C 193.279 71.886,193.167 71.721,193.167 71.633 C 193.167 71.546,192.870 71.180,192.507 70.820 C 191.391 69.716,189.833 70.054,189.833 71.401 C 189.833 71.547,189.758 71.667,189.667 71.667 C 189.575 71.667,189.500 71.854,189.500 72.083 C 189.500 72.313,189.425 72.500,189.333 72.500 C 189.242 72.500,189.167 72.683,189.167 72.907 C 189.167 73.131,189.098 73.356,189.013 73.409 C 188.929 73.461,188.807 73.990,188.744 74.585 C 188.680 75.180,188.562 75.667,188.481 75.667 C 188.400 75.667,188.333 75.952,188.333 76.300 C 188.333 76.648,188.253 77.014,188.155 77.112 C 187.851 77.416,187.861 83.506,188.167 84.099 C 188.654 85.044,189.087 85.375,189.943 85.456 C 191.301 85.584,191.561 85.220,191.640 83.073 C 191.676 82.116,191.771 81.333,191.852 81.333 C 191.934 81.333,192.000 80.208,192.000 78.832 C 192.000 76.405,192.010 76.336,192.321 76.531 C 192.497 76.641,192.688 76.979,192.745 77.282 C 192.802 77.585,192.920 77.833,193.008 77.833 C 193.095 77.833,193.167 77.983,193.167 78.167 C 193.167 78.350,193.242 78.500,193.333 78.500 C 193.425 78.500,193.500 78.612,193.500 78.750 C 193.500 78.887,193.569 79.000,193.653 79.000 C 193.738 79.000,193.854 79.215,193.912 79.477 C 193.969 79.740,194.160 80.109,194.335 80.297 C 194.510 80.485,194.702 80.832,194.761 81.069 C 194.821 81.306,194.936 81.500,195.018 81.500 C 195.100 81.500,195.167 81.595,195.167 81.710 C 195.167 81.826,195.354 82.122,195.583 82.369 C 195.813 82.617,196.000 82.884,196.000 82.963 C 196.000 83.042,196.169 83.265,196.375 83.458 C 196.581 83.652,196.854 83.935,196.980 84.088 C 197.730 84.993,201.167 83.769,201.167 82.597 C 201.167 82.467,201.249 82.334,201.350 82.300 C 201.450 82.267,201.573 81.885,201.621 81.453 C 201.670 81.020,201.775 80.667,201.855 80.667 C 201.935 80.667,202.000 79.392,202.000 77.833 C 202.000 76.275,201.936 75.000,201.857 75.000 C 201.778 75.000,201.665 74.531,201.605 73.958 C 201.546 73.385,201.422 72.892,201.332 72.861 C 201.241 72.831,201.167 72.661,201.167 72.484 C 201.167 72.179,200.867 71.513,200.649 71.333 C 200.594 71.287,200.499 70.985,200.440 70.661 C 200.380 70.337,200.182 69.965,199.999 69.833 C 199.816 69.701,199.667 69.457,199.667 69.291 C 199.667 69.125,199.554 68.946,199.417 68.894 C 199.279 68.841,199.167 68.704,199.167 68.590 C 199.167 67.372,196.350 66.262,195.872 67.292 M281.500 67.407 C 281.500 67.631,281.425 67.860,281.333 67.917 C 281.242 67.973,281.167 68.503,281.167 69.093 C 281.167 69.698,281.094 70.167,281.000 70.167 C 280.907 70.167,280.833 70.611,280.833 71.167 L 280.833 72.167 288.500 72.167 L 296.167 72.167 296.167 71.750 C 296.167 71.521,296.242 71.333,296.333 71.333 C 296.429 71.333,296.500 70.833,296.500 70.167 C 296.500 69.500,296.571 69.000,296.667 69.000 C 296.759 69.000,296.833 68.556,296.833 68.000 L 296.833 67.000 289.167 67.000 L 281.500 67.000 281.500 67.407 M299.667 67.167 C 299.667 67.258,299.479 67.333,299.250 67.333 C 299.021 67.333,298.833 67.408,298.833 67.500 C 298.833 67.592,298.721 67.667,298.585 67.667 C 298.230 67.667,297.341 68.646,297.236 69.154 C 297.187 69.390,297.076 69.714,296.990 69.873 C 296.904 70.032,296.833 70.614,296.833 71.165 L 296.833 72.168 313.458 72.126 L 330.083 72.083 330.132 70.777 C 330.177 69.576,329.947 68.500,329.645 68.500 C 329.587 68.500,329.500 68.350,329.452 68.168 C 329.404 67.985,329.227 67.784,329.057 67.721 C 328.888 67.659,328.712 67.565,328.667 67.512 C 328.235 67.017,327.728 67.000,313.752 67.000 C 304.473 67.000,299.667 67.057,299.667 67.167 M331.000 67.917 C 331.000 68.421,330.925 68.833,330.833 68.833 C 330.739 68.833,330.667 69.302,330.667 69.907 C 330.667 70.497,330.592 71.027,330.500 71.083 C 330.408 71.140,330.333 71.407,330.333 71.677 L 330.333 72.167 338.750 72.167 L 347.167 72.167 347.167 70.500 C 347.167 69.500,347.100 68.833,347.000 68.833 C 346.908 68.833,346.833 68.696,346.833 68.528 C 346.833 68.136,345.939 67.333,345.501 67.333 C 345.317 67.333,345.167 67.258,345.167 67.167 C 345.167 67.058,342.694 67.000,338.083 67.000 L 331.000 67.000 331.000 67.917 M211.667 68.333 C 211.667 68.431,211.083 68.500,210.250 68.500 C 209.471 68.500,208.833 68.564,208.833 68.642 C 208.833 68.720,208.027 68.836,207.042 68.899 C 206.056 68.963,205.225 69.086,205.194 69.174 C 205.164 69.262,204.858 69.333,204.515 69.333 C 204.079 69.333,203.783 69.449,203.529 69.719 C 203.166 70.105,203.038 70.667,203.313 70.667 C 203.393 70.667,203.502 70.886,203.556 71.153 C 203.613 71.442,203.791 71.684,203.993 71.748 C 204.180 71.807,204.333 71.926,204.333 72.011 C 204.333 72.097,204.502 72.169,204.708 72.172 C 205.433 72.182,205.713 72.565,205.578 73.363 C 205.448 74.133,204.987 74.667,204.452 74.667 C 203.734 74.667,203.505 75.248,203.546 76.965 C 203.573 78.117,203.526 78.575,203.375 78.625 C 203.260 78.663,203.167 78.913,203.167 79.181 C 203.167 79.448,203.092 79.667,203.000 79.667 C 202.900 79.667,202.833 80.333,202.833 81.333 C 202.833 82.333,202.900 83.000,203.000 83.000 C 203.092 83.000,203.167 83.112,203.167 83.250 C 203.167 83.387,203.242 83.500,203.333 83.500 C 203.425 83.500,203.500 83.618,203.500 83.763 C 203.500 83.908,203.807 84.339,204.182 84.721 L 204.863 85.417 206.807 85.417 C 208.671 85.417,210.167 85.145,210.167 84.807 C 210.167 84.730,210.350 84.667,210.573 84.667 C 210.797 84.667,211.023 84.597,211.075 84.513 C 211.128 84.428,211.380 84.313,211.636 84.257 C 211.892 84.200,212.208 84.007,212.338 83.827 C 212.467 83.647,212.709 83.500,212.875 83.500 C 213.041 83.500,213.217 83.395,213.267 83.266 C 213.316 83.138,213.507 82.994,213.691 82.945 C 213.874 82.897,214.065 82.703,214.115 82.512 C 214.165 82.322,214.272 82.167,214.353 82.167 C 214.434 82.167,214.500 81.829,214.500 81.417 C 214.500 81.004,214.425 80.667,214.333 80.667 C 214.242 80.667,214.167 80.560,214.167 80.429 C 214.167 79.684,209.616 79.317,208.927 80.006 C 208.839 80.094,208.400 80.167,207.952 80.167 L 207.137 80.167 207.255 79.458 C 207.320 79.069,207.439 78.725,207.520 78.694 C 207.601 78.664,207.667 78.565,207.667 78.474 C 207.667 77.952,208.160 77.833,210.321 77.833 C 211.663 77.833,212.500 77.769,212.500 77.667 C 212.500 77.575,212.719 77.500,212.986 77.500 C 213.929 77.500,214.000 77.401,214.000 76.092 C 214.000 74.558,213.896 74.500,211.144 74.500 L 209.137 74.500 209.255 73.801 C 209.439 72.712,209.444 72.711,212.852 72.643 L 215.933 72.582 216.383 72.132 C 216.820 71.695,217.009 70.833,216.667 70.833 C 216.575 70.833,216.500 70.683,216.500 70.500 C 216.500 70.317,216.425 70.167,216.333 70.167 C 216.242 70.167,216.167 70.058,216.167 69.924 C 216.167 69.610,215.390 68.833,215.076 68.833 C 214.942 68.833,214.833 68.758,214.833 68.667 C 214.833 68.575,214.646 68.500,214.417 68.500 C 214.188 68.500,214.000 68.425,214.000 68.333 C 214.000 68.238,213.500 68.167,212.833 68.167 C 212.167 68.167,211.667 68.238,211.667 68.333 M178.542 68.944 C 177.969 68.984,177.500 69.087,177.500 69.175 C 177.500 69.262,177.200 69.333,176.833 69.333 C 176.467 69.333,176.167 69.398,176.167 69.477 C 176.167 69.557,175.848 69.666,175.458 69.721 C 174.693 69.828,173.837 70.173,173.835 70.375 C 173.834 70.444,173.721 70.500,173.583 70.500 C 173.446 70.500,173.333 70.570,173.333 70.655 C 173.333 70.741,173.168 70.863,172.966 70.927 C 172.580 71.050,172.167 71.395,172.167 71.594 C 172.167 71.658,172.005 71.851,171.808 72.022 C 171.164 72.581,171.158 75.885,171.801 76.122 C 171.956 76.179,172.133 76.299,172.193 76.390 C 172.253 76.480,172.722 76.588,173.235 76.631 C 173.747 76.673,174.167 76.774,174.167 76.854 C 174.167 76.934,174.804 77.000,175.583 77.000 C 176.417 77.000,177.000 77.069,177.000 77.167 C 177.000 77.264,176.444 77.333,175.667 77.333 C 174.933 77.333,174.333 77.399,174.333 77.478 C 174.333 77.558,174.076 77.665,173.761 77.716 C 173.021 77.836,172.167 78.645,172.167 79.226 C 172.167 79.469,172.092 79.667,172.000 79.667 C 171.908 79.667,171.833 79.967,171.833 80.333 C 171.833 80.700,171.908 81.000,172.000 81.000 C 172.092 81.000,172.167 81.182,172.167 81.405 C 172.167 81.627,172.279 81.922,172.417 82.060 C 172.554 82.197,172.667 82.356,172.667 82.412 C 172.667 82.611,173.449 83.295,173.806 83.408 C 174.004 83.471,174.167 83.592,174.167 83.678 C 174.167 83.763,174.247 83.833,174.345 83.833 C 174.443 83.833,174.636 83.946,174.774 84.083 C 174.911 84.221,175.206 84.333,175.429 84.333 C 175.651 84.333,175.834 84.390,175.835 84.458 C 175.837 84.643,176.676 85.000,177.107 85.000 C 177.312 85.000,177.527 85.075,177.583 85.167 C 177.644 85.265,178.665 85.333,180.083 85.333 C 181.502 85.333,182.522 85.265,182.583 85.167 C 182.640 85.075,182.869 85.000,183.093 85.000 C 183.317 85.000,183.500 84.925,183.500 84.833 C 183.500 84.742,183.688 84.667,183.917 84.667 C 184.146 84.667,184.333 84.598,184.333 84.513 C 184.333 84.429,184.540 84.313,184.792 84.256 C 185.343 84.130,186.333 83.272,186.333 82.919 C 186.333 82.780,186.407 82.667,186.497 82.667 C 186.587 82.667,186.707 82.479,186.765 82.250 C 186.822 82.021,186.936 81.833,187.018 81.833 C 187.100 81.833,187.167 81.533,187.167 81.167 C 187.167 80.800,187.242 80.500,187.333 80.500 C 187.425 80.500,187.500 80.162,187.500 79.750 C 187.500 79.337,187.425 79.000,187.333 79.000 C 187.242 79.000,187.167 78.737,187.167 78.417 C 187.167 78.096,187.100 77.833,187.018 77.833 C 186.936 77.833,186.819 77.630,186.756 77.382 C 186.615 76.821,185.518 75.667,185.125 75.667 C 184.965 75.667,184.833 75.592,184.833 75.500 C 184.833 75.408,184.646 75.333,184.417 75.333 C 184.188 75.333,184.000 75.258,184.000 75.167 C 184.000 75.075,183.752 75.000,183.450 75.000 C 183.147 75.000,182.823 74.923,182.728 74.828 C 182.634 74.734,181.794 74.610,180.861 74.553 C 179.929 74.496,179.167 74.386,179.167 74.308 C 179.167 74.230,178.604 74.167,177.917 74.167 C 177.194 74.167,176.667 74.096,176.667 74.000 C 176.667 73.908,176.273 73.821,175.792 73.807 C 175.123 73.786,175.054 73.764,175.500 73.711 C 175.821 73.674,176.155 73.573,176.242 73.488 C 176.329 73.403,176.760 73.333,177.200 73.333 C 177.640 73.333,178.000 73.258,178.000 73.167 C 178.000 73.066,178.694 73.000,179.750 73.000 C 180.713 73.000,181.500 72.933,181.500 72.851 C 181.500 72.769,182.675 72.675,184.111 72.642 C 186.003 72.599,186.742 72.525,186.792 72.374 C 186.830 72.260,186.986 72.166,187.139 72.165 C 187.475 72.164,187.833 71.448,187.833 70.778 C 187.833 70.204,187.297 69.667,186.724 69.667 C 186.509 69.667,186.333 69.592,186.333 69.500 C 186.333 69.408,186.161 69.333,185.950 69.333 C 185.739 69.333,185.489 69.255,185.393 69.160 C 185.208 68.975,180.333 68.822,178.542 68.944 M221.512 68.953 C 221.179 69.085,220.167 70.120,220.167 70.329 C 220.167 70.424,219.979 70.665,219.750 70.864 C 219.521 71.064,219.333 71.328,219.333 71.452 C 219.333 71.576,219.221 71.720,219.083 71.773 C 218.946 71.826,218.833 71.994,218.833 72.148 C 218.833 72.301,218.686 72.533,218.506 72.662 C 218.326 72.792,218.133 73.109,218.076 73.366 C 218.020 73.623,217.904 73.833,217.820 73.833 C 217.736 73.833,217.667 73.983,217.667 74.167 C 217.667 74.350,217.595 74.500,217.508 74.500 C 217.420 74.500,217.299 74.762,217.239 75.083 C 217.179 75.404,217.063 75.667,216.981 75.667 C 216.900 75.667,216.833 75.854,216.833 76.083 C 216.833 76.313,216.758 76.500,216.667 76.500 C 216.575 76.500,216.500 76.762,216.500 77.083 C 216.500 77.404,216.425 77.667,216.333 77.667 C 216.232 77.667,216.167 78.417,216.167 79.583 C 216.167 80.750,216.232 81.500,216.333 81.500 C 216.425 81.500,216.500 81.762,216.500 82.083 C 216.500 82.404,216.575 82.667,216.667 82.667 C 216.758 82.667,216.833 82.892,216.833 83.167 C 216.833 83.442,216.758 83.667,216.667 83.667 C 216.575 83.667,216.500 83.854,216.500 84.083 C 216.500 84.313,216.435 84.500,216.355 84.500 C 216.275 84.500,216.161 84.800,216.103 85.167 C 216.044 85.533,215.922 85.833,215.831 85.833 C 215.741 85.833,215.667 86.096,215.667 86.417 C 215.667 86.737,215.595 87.000,215.508 87.000 C 215.421 87.000,215.299 87.450,215.237 88.000 C 215.175 88.550,215.058 89.000,214.978 89.000 C 214.899 89.000,214.833 89.285,214.833 89.633 C 214.833 89.982,214.761 90.339,214.673 90.427 C 214.585 90.515,214.461 91.318,214.398 92.211 C 214.335 93.103,214.220 93.833,214.142 93.833 C 214.064 93.833,214.000 94.471,214.000 95.250 C 214.000 96.083,214.069 96.667,214.167 96.667 C 214.258 96.667,214.333 96.902,214.333 97.190 C 214.333 97.555,214.485 97.859,214.833 98.192 C 215.108 98.455,215.333 98.742,215.333 98.832 C 215.333 98.921,215.521 99.041,215.750 99.098 C 215.979 99.156,216.167 99.270,216.167 99.351 C 216.167 99.586,217.499 99.524,217.746 99.278 C 217.868 99.156,218.021 98.556,218.086 97.945 C 218.152 97.334,218.272 96.833,218.353 96.833 C 218.434 96.833,218.500 96.533,218.500 96.167 C 218.500 95.800,218.568 95.500,218.652 95.500 C 218.735 95.500,218.857 94.862,218.921 94.083 C 218.986 93.304,219.106 92.667,219.186 92.667 C 219.267 92.667,219.333 92.404,219.333 92.083 C 219.333 91.763,219.408 91.500,219.500 91.500 C 219.592 91.500,219.667 91.237,219.667 90.917 C 219.667 90.596,219.738 90.333,219.825 90.333 C 219.912 90.333,220.034 89.883,220.097 89.333 C 220.159 88.783,220.275 88.333,220.355 88.333 C 220.435 88.333,220.500 88.146,220.500 87.917 C 220.500 87.688,220.565 87.500,220.645 87.500 C 220.725 87.500,220.839 87.200,220.897 86.833 L 221.004 86.167 222.335 86.167 C 223.112 86.167,223.667 86.097,223.667 86.000 C 223.667 85.908,223.887 85.833,224.157 85.833 C 224.426 85.833,224.690 85.764,224.742 85.679 C 224.794 85.595,225.061 85.476,225.335 85.416 C 225.609 85.356,225.833 85.238,225.833 85.153 C 225.833 85.069,225.983 85.000,226.167 85.000 C 226.350 85.000,226.500 84.925,226.500 84.833 C 226.500 84.742,226.612 84.667,226.750 84.667 C 226.887 84.667,227.000 84.597,227.000 84.511 C 227.000 84.426,227.166 84.303,227.369 84.239 C 227.789 84.105,230.167 81.789,230.167 81.513 C 230.167 81.414,230.230 81.333,230.308 81.333 C 230.386 81.333,230.589 80.996,230.759 80.583 C 230.929 80.171,231.128 79.833,231.201 79.833 C 231.274 79.833,231.333 79.661,231.333 79.450 C 231.333 79.239,231.427 78.973,231.540 78.860 C 231.837 78.563,231.838 73.141,231.542 73.042 C 231.427 73.004,231.333 72.808,231.333 72.606 C 231.333 72.405,231.176 72.130,230.984 71.995 C 230.791 71.860,230.566 71.574,230.482 71.359 C 230.398 71.144,230.180 70.929,229.998 70.881 C 229.816 70.833,229.667 70.728,229.667 70.647 C 229.667 70.379,227.230 70.473,227.000 70.750 C 226.886 70.887,226.657 71.000,226.491 71.000 C 226.325 71.000,226.142 71.150,226.083 71.333 C 226.025 71.517,225.858 71.667,225.712 71.667 C 225.475 71.667,222.833 74.192,222.833 74.419 C 222.833 74.524,222.270 75.167,221.708 75.702 C 221.502 75.899,221.333 76.149,221.333 76.257 C 221.333 76.365,221.146 76.594,220.917 76.766 C 220.688 76.938,220.500 77.177,220.500 77.298 C 220.500 77.418,220.313 77.690,220.083 77.902 C 219.854 78.114,219.667 78.373,219.667 78.477 C 219.667 78.582,219.592 78.667,219.500 78.667 C 219.408 78.667,219.333 78.554,219.333 78.417 C 219.333 78.279,219.408 78.167,219.500 78.167 C 219.592 78.167,219.667 77.910,219.667 77.597 C 219.667 77.284,219.743 77.002,219.837 76.971 C 219.931 76.940,220.056 76.615,220.114 76.249 C 220.173 75.883,220.350 75.491,220.508 75.379 C 220.666 75.266,220.846 74.971,220.909 74.722 C 220.971 74.473,221.152 74.153,221.311 74.010 C 221.614 73.738,222.167 72.665,222.167 72.350 C 222.167 72.249,222.242 72.167,222.333 72.167 C 222.425 72.167,222.500 71.979,222.500 71.750 C 222.500 71.521,222.566 71.333,222.648 71.333 C 222.856 71.333,223.044 69.915,222.915 69.325 C 222.806 68.828,222.222 68.673,221.512 68.953 M167.049 69.292 C 166.989 69.452,166.867 69.633,166.777 69.693 C 166.687 69.753,166.579 70.222,166.536 70.735 C 166.494 71.247,166.393 71.667,166.313 71.667 C 166.232 71.667,166.167 72.042,166.167 72.500 C 166.167 72.958,166.092 73.333,166.000 73.333 C 165.892 73.333,165.833 75.194,165.833 78.583 C 165.833 81.972,165.892 83.833,166.000 83.833 C 166.092 83.833,166.167 83.946,166.167 84.083 C 166.167 84.221,166.242 84.333,166.333 84.333 C 166.425 84.333,166.500 84.483,166.500 84.667 C 166.500 84.852,166.611 85.000,166.750 85.000 C 166.887 85.000,167.000 85.075,167.000 85.167 C 167.000 85.561,169.326 85.356,169.758 84.924 L 170.167 84.515 170.167 80.091 C 170.167 77.253,170.107 75.667,170.000 75.667 C 169.901 75.667,169.833 75.028,169.833 74.083 C 169.833 73.212,169.767 72.500,169.685 72.500 C 169.604 72.500,169.508 71.976,169.472 71.335 C 169.376 69.646,167.501 68.065,167.049 69.292 M135.667 77.412 L 135.667 81.492 135.125 81.386 C 134.827 81.328,134.558 81.217,134.528 81.140 C 134.497 81.063,134.366 81.000,134.236 81.000 C 134.106 81.000,134.000 80.934,134.000 80.854 C 134.000 80.774,133.765 80.661,133.478 80.604 C 133.190 80.546,132.830 80.355,132.676 80.178 C 132.523 80.000,132.176 79.801,131.907 79.734 C 131.637 79.667,131.319 79.475,131.199 79.306 C 131.079 79.138,130.873 79.000,130.741 79.000 C 130.608 79.000,130.500 78.930,130.500 78.845 C 130.500 78.759,130.336 78.637,130.136 78.573 C 129.935 78.510,129.533 78.205,129.241 77.896 C 128.949 77.586,128.660 77.333,128.598 77.333 C 128.536 77.333,128.304 77.165,128.084 76.958 C 127.863 76.752,127.567 76.487,127.425 76.368 C 126.722 75.783,127.367 74.757,128.548 74.580 C 128.980 74.515,129.333 74.396,129.333 74.314 C 129.333 74.233,129.665 74.167,130.069 74.167 C 130.474 74.167,130.831 74.092,130.861 74.001 C 130.892 73.910,131.723 73.786,132.708 73.726 C 133.694 73.665,134.500 73.552,134.500 73.475 C 134.500 73.397,134.762 73.333,135.083 73.333 L 135.667 73.333 135.667 77.412 M280.667 74.000 C 280.667 74.367,280.592 74.667,280.500 74.667 C 280.405 74.667,280.333 75.167,280.333 75.833 C 280.333 76.500,280.262 77.000,280.167 77.000 C 280.072 77.000,280.000 77.495,280.000 78.153 C 280.000 78.787,279.930 79.331,279.845 79.361 C 279.760 79.392,279.637 80.410,279.572 81.625 L 279.453 83.833 287.143 83.833 L 294.833 83.833 294.833 83.033 C 294.833 82.593,294.899 82.162,294.979 82.075 C 295.059 81.988,295.168 81.260,295.221 80.458 L 295.317 79.000 290.659 79.000 C 287.664 79.000,286.000 78.940,286.000 78.833 C 286.000 78.742,286.075 78.667,286.167 78.667 C 286.258 78.667,286.333 78.404,286.333 78.083 L 286.333 77.500 291.000 77.500 L 295.667 77.500 295.667 76.500 C 295.667 75.944,295.741 75.500,295.833 75.500 C 295.927 75.500,296.000 75.028,296.000 74.417 L 296.000 73.333 288.333 73.333 L 280.667 73.333 280.667 74.000 M296.500 74.635 C 296.500 75.707,296.559 76.000,296.833 76.295 C 297.017 76.492,297.167 76.731,297.167 76.826 C 297.167 76.922,297.273 77.000,297.403 77.000 C 297.533 77.000,297.670 77.094,297.708 77.208 C 297.761 77.367,298.867 77.429,302.305 77.466 L 306.833 77.515 306.833 78.008 C 306.833 78.278,306.758 78.500,306.667 78.500 C 306.575 78.500,306.500 78.612,306.500 78.750 C 306.500 78.967,305.787 79.000,301.083 79.000 L 295.667 79.000 295.667 79.990 C 295.667 80.535,295.592 81.027,295.500 81.083 C 295.408 81.140,295.333 81.782,295.333 82.510 L 295.333 83.833 302.167 83.833 C 305.930 83.833,309.000 83.768,309.000 83.688 C 309.000 83.609,309.329 83.506,309.731 83.461 C 310.694 83.352,312.167 81.982,312.167 81.193 C 312.167 80.919,312.253 80.666,312.358 80.631 C 312.492 80.586,312.555 79.687,312.567 77.652 L 312.583 74.738 312.129 74.282 C 311.880 74.032,311.448 73.781,311.171 73.726 C 310.894 73.670,310.667 73.559,310.667 73.479 C 310.667 73.398,307.520 73.333,303.583 73.333 L 296.500 73.333 296.500 74.635 M313.667 74.500 C 313.667 75.167,313.595 75.667,313.500 75.667 C 313.406 75.667,313.333 76.139,313.333 76.750 C 313.333 77.346,313.267 77.833,313.185 77.833 C 313.104 77.833,312.983 78.883,312.917 80.167 C 312.850 81.450,312.729 82.500,312.648 82.500 C 312.567 82.500,312.500 82.800,312.500 83.167 L 312.500 83.833 315.583 83.833 L 318.667 83.833 318.667 82.833 C 318.667 82.278,318.741 81.833,318.833 81.833 C 318.929 81.833,319.000 81.333,319.000 80.667 C 319.000 80.000,319.071 79.500,319.167 79.500 C 319.259 79.500,319.333 79.058,319.333 78.508 L 319.333 77.516 323.708 77.466 L 328.083 77.417 328.600 76.917 C 329.313 76.228,329.500 75.814,329.500 74.928 C 329.500 74.509,329.575 74.167,329.667 74.167 C 329.758 74.167,329.833 73.979,329.833 73.750 L 329.833 73.333 321.750 73.333 L 313.667 73.333 313.667 74.500 M330.268 73.597 C 330.212 73.742,330.167 74.304,330.167 74.847 C 330.167 75.393,330.092 75.833,330.000 75.833 C 329.905 75.833,329.833 76.333,329.833 77.000 C 329.833 77.642,329.768 78.167,329.688 78.167 C 329.608 78.167,329.489 79.142,329.423 80.333 C 329.357 81.525,329.235 82.500,329.152 82.500 C 329.068 82.500,329.000 82.800,329.000 83.167 L 329.000 83.833 332.083 83.833 L 335.167 83.833 335.167 82.833 C 335.167 82.278,335.241 81.833,335.333 81.833 C 335.429 81.833,335.500 81.333,335.500 80.667 C 335.500 80.000,335.571 79.500,335.667 79.500 C 335.760 79.500,335.833 79.039,335.833 78.450 C 335.833 77.872,335.900 77.329,335.981 77.242 C 336.062 77.155,336.181 76.240,336.245 75.208 L 336.361 73.333 333.365 73.333 C 330.787 73.333,330.355 73.370,330.268 73.597 M340.667 74.333 C 340.667 74.883,340.601 75.333,340.521 75.333 C 340.441 75.333,340.322 76.308,340.256 77.500 C 340.190 78.692,340.068 79.667,339.985 79.667 C 339.902 79.667,339.833 80.150,339.833 80.740 C 339.833 81.331,339.758 81.860,339.667 81.917 C 339.575 81.973,339.500 82.429,339.500 82.930 L 339.500 83.841 342.625 83.795 L 345.750 83.750 345.897 81.542 C 345.979 80.327,346.110 79.333,346.189 79.333 C 346.268 79.333,346.333 78.815,346.333 78.181 C 346.333 77.547,346.397 77.003,346.475 76.972 C 346.553 76.942,346.668 76.110,346.731 75.125 L 346.844 73.333 343.755 73.333 L 340.667 73.333 340.667 74.333 M229.000 75.133 C 229.000 75.390,229.093 75.693,229.207 75.807 C 229.353 75.953,229.361 76.048,229.232 76.132 C 229.132 76.197,229.006 76.586,228.952 76.996 C 228.899 77.407,228.775 77.769,228.677 77.802 C 228.580 77.834,228.500 78.005,228.500 78.181 C 228.500 78.356,228.425 78.500,228.333 78.500 C 228.242 78.500,228.167 78.609,228.167 78.742 C 228.167 79.006,227.411 79.833,227.170 79.833 C 227.089 79.833,226.975 79.983,226.917 80.166 C 226.859 80.349,226.629 80.545,226.406 80.601 C 226.183 80.657,226.000 80.770,226.000 80.851 C 226.000 80.933,225.850 81.000,225.667 81.000 C 225.483 81.000,225.333 81.072,225.333 81.159 C 225.333 81.247,225.070 81.368,224.748 81.428 C 224.426 81.488,224.122 81.604,224.072 81.686 C 223.952 81.878,223.333 81.878,223.333 81.684 C 223.333 81.603,223.446 81.492,223.583 81.440 C 223.721 81.387,223.833 81.209,223.833 81.045 C 223.833 80.881,223.983 80.653,224.167 80.539 C 224.350 80.424,224.500 80.219,224.500 80.082 C 224.500 79.945,224.570 79.833,224.655 79.833 C 224.741 79.833,224.864 79.665,224.929 79.458 C 224.994 79.252,225.176 78.971,225.333 78.833 C 225.490 78.696,225.672 78.415,225.737 78.208 C 225.803 78.002,225.926 77.833,226.011 77.833 C 226.097 77.833,226.167 77.755,226.167 77.659 C 226.167 77.563,226.354 77.297,226.583 77.068 C 226.813 76.839,227.000 76.577,227.000 76.485 C 227.000 76.247,228.543 74.690,228.792 74.677 C 228.911 74.671,229.000 74.865,229.000 75.133 M181.250 77.709 C 181.362 77.822,181.232 77.843,180.854 77.772 C 180.545 77.714,180.114 77.667,179.896 77.667 C 179.678 77.667,179.500 77.601,179.500 77.520 C 179.500 77.327,181.036 77.493,181.250 77.709 M182.333 78.000 C 182.333 78.092,182.472 78.167,182.641 78.167 C 183.645 78.167,184.302 79.008,183.738 79.571 C 183.379 79.930,183.167 79.900,183.167 79.489 C 183.167 79.004,182.866 78.500,182.577 78.500 C 182.443 78.500,182.333 78.425,182.333 78.333 C 182.333 78.242,182.146 78.167,181.917 78.167 C 181.688 78.167,181.500 78.092,181.500 78.000 C 181.500 77.908,181.688 77.833,181.917 77.833 C 182.146 77.833,182.333 77.908,182.333 78.000 M175.500 79.667 C 175.500 79.758,175.688 79.833,175.917 79.833 C 176.146 79.833,176.333 79.908,176.333 80.000 C 176.333 80.092,176.479 80.167,176.657 80.167 C 176.835 80.167,177.024 80.237,177.077 80.324 C 177.131 80.410,177.510 80.531,177.921 80.593 C 178.331 80.654,178.667 80.771,178.667 80.852 C 178.667 80.934,178.929 81.000,179.250 81.000 C 179.571 81.000,179.833 81.075,179.833 81.167 C 179.833 81.270,178.944 81.333,177.500 81.333 C 176.217 81.333,175.166 81.277,175.165 81.208 C 175.164 81.140,174.864 80.940,174.498 80.765 C 174.132 80.590,173.833 80.416,173.833 80.378 C 173.833 80.236,174.317 79.833,174.488 79.833 C 174.586 79.833,174.667 79.758,174.667 79.667 C 174.667 79.575,174.854 79.500,175.083 79.500 C 175.313 79.500,175.500 79.575,175.500 79.667 " stroke="none" fill="#fbfcfc" fill-rule="evenodd"></path><path id="path1" d="M36.333 73.833 L 36.333 84.333 38.917 84.333 L 41.500 84.333 41.500 79.930 C 41.500 75.248,41.526 75.000,42.018 75.000 C 42.191 75.000,42.333 74.925,42.333 74.833 C 42.333 74.737,42.861 74.667,43.583 74.667 C 44.306 74.667,44.833 74.737,44.833 74.833 C 44.833 74.925,44.946 75.000,45.083 75.000 C 45.932 75.000,46.000 75.372,46.000 80.000 L 46.000 84.333 48.583 84.333 L 51.167 84.333 51.167 78.833 C 51.167 75.278,51.108 73.333,51.000 73.333 C 50.908 73.333,50.833 73.146,50.833 72.917 C 50.833 72.688,50.758 72.500,50.667 72.500 C 50.575 72.500,50.500 72.403,50.500 72.286 C 50.500 71.974,49.062 70.500,48.758 70.500 C 48.616 70.500,48.500 70.440,48.500 70.367 C 48.500 70.000,47.231 69.833,44.447 69.833 L 41.500 69.833 41.500 66.583 L 41.500 63.333 38.917 63.333 L 36.333 63.333 36.333 73.833 M71.833 73.833 L 71.833 84.333 74.417 84.333 L 77.000 84.333 77.000 73.833 L 77.000 63.333 74.417 63.333 L 71.833 63.333 71.833 73.833 M54.000 75.167 C 54.000 78.100,54.065 80.500,54.145 80.500 C 54.224 80.500,54.331 80.811,54.382 81.191 C 54.433 81.570,54.629 82.039,54.817 82.232 C 56.265 83.719,56.408 83.833,56.812 83.833 C 56.992 83.833,57.170 83.927,57.208 84.042 C 57.262 84.201,58.304 84.250,61.667 84.250 C 65.030 84.250,66.072 84.201,66.125 84.042 C 66.163 83.927,66.330 83.833,66.496 83.833 C 66.662 83.833,66.841 83.721,66.894 83.583 C 66.946 83.446,67.108 83.333,67.253 83.333 C 67.399 83.333,67.596 83.108,67.692 82.833 C 67.788 82.558,67.934 82.333,68.016 82.333 C 68.099 82.333,68.167 82.221,68.167 82.083 C 68.167 81.946,68.223 81.833,68.292 81.832 C 68.800 81.827,68.901 80.858,68.962 75.375 L 69.024 69.833 66.345 69.833 L 63.667 69.833 63.667 74.221 C 63.667 79.593,63.784 79.333,61.352 79.333 C 59.830 79.333,59.333 79.172,59.333 78.679 C 59.333 78.580,59.258 78.500,59.167 78.500 C 59.060 78.500,59.000 76.944,59.000 74.167 L 59.000 69.833 56.500 69.833 L 54.000 69.833 54.000 75.167 M80.167 75.412 C 80.167 78.850,80.228 81.000,80.326 81.000 C 80.413 81.000,80.534 81.262,80.594 81.583 C 80.655 81.904,80.770 82.167,80.852 82.167 C 80.933 82.167,81.000 82.245,81.000 82.341 C 81.000 82.561,81.763 83.333,81.981 83.333 C 82.070 83.333,82.242 83.427,82.363 83.542 C 83.061 84.202,83.434 84.250,87.886 84.250 C 91.207 84.250,92.238 84.201,92.292 84.042 C 92.330 83.927,92.468 83.833,92.598 83.833 C 92.906 83.833,94.333 82.386,94.333 82.074 C 94.333 81.941,94.408 81.833,94.500 81.833 C 94.592 81.833,94.667 81.646,94.667 81.417 C 94.667 81.188,94.743 81.000,94.836 81.000 C 94.947 81.000,94.990 79.120,94.961 75.458 L 94.917 69.917 92.375 69.871 L 89.833 69.825 89.833 74.246 C 89.833 76.869,89.770 78.667,89.678 78.667 C 89.592 78.667,89.475 78.817,89.417 79.000 C 89.235 79.573,86.423 79.473,85.500 78.861 C 85.454 78.831,85.379 76.806,85.333 74.361 L 85.250 69.917 82.708 69.871 L 80.167 69.825 80.167 75.412 " stroke="none" fill="#1ce484" fill-rule="evenodd"></path><path id="path2" d="M187.250 23.333 C 187.193 23.425,186.476 23.500,185.657 23.500 C 184.837 23.500,184.167 23.564,184.167 23.643 C 184.167 23.721,183.404 23.838,182.471 23.902 C 181.538 23.967,180.643 24.090,180.482 24.176 C 180.321 24.263,179.921 24.333,179.594 24.333 C 179.267 24.333,179.000 24.408,179.000 24.500 C 179.000 24.592,178.704 24.667,178.343 24.667 C 177.982 24.667,177.645 24.733,177.595 24.814 C 177.545 24.895,177.092 25.013,176.588 25.076 C 176.084 25.138,175.629 25.260,175.576 25.345 C 175.523 25.430,175.264 25.500,175.000 25.500 C 174.736 25.500,174.479 25.566,174.429 25.647 C 174.378 25.729,174.001 25.845,173.589 25.907 C 173.178 25.969,172.797 26.090,172.744 26.176 C 172.691 26.263,172.464 26.333,172.240 26.333 C 172.016 26.333,171.833 26.408,171.833 26.500 C 171.833 26.592,171.646 26.667,171.417 26.667 C 171.188 26.667,171.000 26.733,171.000 26.815 C 171.000 26.896,170.728 27.014,170.396 27.076 C 170.064 27.138,169.670 27.253,169.521 27.331 C 169.031 27.586,168.035 28.000,167.912 28.000 C 167.692 28.000,164.585 29.559,164.528 29.698 C 164.497 29.772,164.372 29.833,164.250 29.833 C 164.040 29.833,163.015 30.317,162.833 30.502 C 162.788 30.548,162.450 30.736,162.083 30.918 C 161.717 31.101,161.379 31.294,161.333 31.348 C 161.218 31.483,159.345 32.667,159.247 32.667 C 159.134 32.667,155.691 35.122,155.065 35.648 C 154.781 35.887,154.368 36.228,154.149 36.404 C 151.726 38.355,148.241 41.806,146.583 43.894 C 146.308 44.241,145.952 44.680,145.792 44.871 C 145.631 45.062,145.500 45.262,145.500 45.317 C 145.500 45.372,145.307 45.641,145.071 45.915 C 144.835 46.189,144.601 46.620,144.550 46.873 C 144.500 47.126,144.393 47.333,144.313 47.333 C 144.232 47.333,144.167 47.891,144.167 48.573 C 144.167 49.256,144.092 49.860,144.000 49.917 C 143.728 50.085,143.810 50.761,144.138 51.058 C 144.828 51.682,145.190 51.407,147.124 48.786 C 147.421 48.383,147.824 47.873,148.018 47.652 C 148.212 47.431,148.643 46.914,148.977 46.504 C 149.531 45.822,150.581 44.665,151.678 43.527 C 152.517 42.656,154.944 40.407,155.662 39.833 C 156.064 39.512,156.564 39.081,156.772 38.875 C 156.981 38.669,157.212 38.500,157.286 38.500 C 157.360 38.500,157.607 38.329,157.835 38.120 C 158.063 37.910,158.533 37.565,158.879 37.353 C 159.226 37.141,159.601 36.877,159.713 36.766 C 159.825 36.655,160.160 36.421,160.458 36.246 C 160.756 36.071,161.000 35.877,161.000 35.815 C 161.000 35.754,161.188 35.656,161.417 35.598 C 161.646 35.541,161.833 35.420,161.833 35.330 C 161.833 35.240,161.946 35.167,162.083 35.167 C 162.221 35.167,162.334 35.110,162.335 35.042 C 162.336 34.973,162.673 34.769,163.085 34.588 C 163.497 34.407,163.833 34.200,163.833 34.129 C 163.833 34.058,163.946 34.000,164.083 34.000 C 164.221 34.000,164.334 33.944,164.334 33.875 C 164.334 33.806,164.672 33.611,165.084 33.442 C 165.496 33.272,165.833 33.066,165.833 32.983 C 165.833 32.901,165.927 32.832,166.042 32.831 C 166.156 32.829,166.850 32.530,167.583 32.167 C 168.317 31.803,169.048 31.504,169.208 31.503 C 169.369 31.501,169.500 31.425,169.500 31.333 C 169.500 31.242,169.646 31.167,169.823 31.167 C 170.001 31.167,170.193 31.092,170.250 31.000 C 170.307 30.908,170.480 30.833,170.635 30.832 C 170.790 30.832,171.131 30.719,171.394 30.582 C 171.657 30.445,171.975 30.333,172.102 30.333 C 172.229 30.333,172.333 30.258,172.333 30.167 C 172.333 30.075,172.521 30.000,172.750 30.000 C 172.979 30.000,173.167 29.932,173.167 29.849 C 173.167 29.766,173.542 29.646,174.000 29.583 C 174.458 29.520,174.875 29.401,174.926 29.318 C 174.978 29.235,175.203 29.167,175.427 29.167 C 175.650 29.167,175.833 29.099,175.833 29.016 C 175.833 28.934,176.283 28.814,176.834 28.750 C 177.384 28.686,177.876 28.566,177.927 28.484 C 177.978 28.401,178.278 28.333,178.593 28.333 C 178.909 28.333,179.167 28.272,179.167 28.197 C 179.167 28.069,180.827 27.775,182.750 27.562 C 183.208 27.511,183.655 27.401,183.742 27.318 C 183.829 27.235,184.448 27.167,185.117 27.167 C 185.817 27.167,186.333 27.096,186.333 27.000 C 186.333 26.761,196.285 26.773,196.365 27.012 C 196.399 27.113,196.912 27.198,197.546 27.207 C 198.162 27.217,198.667 27.286,198.667 27.362 C 198.667 27.438,199.117 27.500,199.667 27.500 C 200.217 27.500,200.667 27.568,200.667 27.652 C 200.667 27.735,201.304 27.857,202.083 27.921 C 202.862 27.986,203.500 28.106,203.500 28.186 C 203.500 28.267,203.710 28.333,203.967 28.333 C 204.223 28.333,204.512 28.412,204.609 28.509 C 204.706 28.606,205.151 28.721,205.598 28.765 C 206.045 28.809,206.484 28.917,206.572 29.006 C 206.661 29.094,206.943 29.167,207.200 29.167 C 207.457 29.167,207.667 29.235,207.667 29.318 C 207.667 29.401,208.036 29.520,208.488 29.582 C 208.939 29.644,209.348 29.797,209.395 29.921 C 209.443 30.046,209.768 30.200,210.116 30.263 C 210.465 30.325,210.825 30.435,210.917 30.507 C 211.008 30.578,211.365 30.689,211.708 30.754 C 212.052 30.818,212.333 30.919,212.333 30.978 C 212.333 31.126,213.140 31.470,213.793 31.600 C 214.090 31.660,214.333 31.774,214.333 31.854 C 214.333 31.934,214.446 32.000,214.583 32.000 C 214.721 32.000,214.833 32.057,214.833 32.127 C 214.833 32.261,216.050 32.833,216.334 32.833 C 216.426 32.833,216.500 32.908,216.500 33.000 C 216.500 33.092,216.650 33.167,216.833 33.167 C 217.017 33.167,217.167 33.234,217.167 33.315 C 217.167 33.397,217.361 33.513,217.598 33.572 C 217.835 33.631,218.186 33.827,218.379 34.007 C 218.572 34.186,218.828 34.333,218.948 34.333 C 219.068 34.333,219.167 34.400,219.167 34.482 C 219.167 34.564,219.354 34.678,219.583 34.735 C 219.813 34.793,220.000 34.913,220.000 35.003 C 220.000 35.093,220.112 35.167,220.250 35.167 C 220.387 35.167,220.500 35.240,220.500 35.330 C 220.500 35.420,220.688 35.541,220.917 35.598 C 221.146 35.656,221.333 35.770,221.333 35.851 C 221.333 35.933,221.449 36.000,221.591 36.000 C 221.733 36.000,222.023 36.188,222.235 36.417 C 222.448 36.646,222.695 36.833,222.785 36.833 C 222.875 36.833,223.084 36.983,223.250 37.167 C 223.416 37.350,223.649 37.500,223.768 37.500 C 223.886 37.500,224.043 37.601,224.117 37.724 C 224.190 37.847,224.475 38.089,224.750 38.262 C 225.025 38.436,225.449 38.785,225.692 39.039 C 225.935 39.292,226.206 39.500,226.294 39.500 C 226.383 39.500,226.836 39.875,227.301 40.333 C 227.767 40.792,228.195 41.167,228.253 41.167 C 228.310 41.167,228.835 41.635,229.420 42.208 C 230.005 42.781,230.581 43.341,230.700 43.452 C 230.819 43.564,231.142 43.921,231.417 44.246 C 231.692 44.571,232.160 45.105,232.458 45.433 C 232.756 45.761,233.000 46.092,233.000 46.170 C 233.000 46.247,233.146 46.357,233.325 46.414 C 233.503 46.471,233.700 46.676,233.761 46.869 C 233.897 47.298,234.576 48.000,234.854 48.000 C 234.965 48.000,235.008 48.048,234.949 48.107 C 234.728 48.327,235.394 49.170,235.709 49.070 C 235.967 48.988,235.999 49.045,235.922 49.445 C 235.872 49.704,235.876 49.822,235.930 49.707 C 236.066 49.419,236.341 49.619,236.225 49.922 C 236.173 50.057,236.214 50.167,236.316 50.167 C 236.417 50.167,236.500 49.904,236.500 49.583 C 236.500 49.061,236.571 48.968,237.167 48.710 C 237.533 48.551,237.833 48.364,237.833 48.294 C 237.833 48.224,237.946 48.167,238.083 48.167 C 238.221 48.167,238.336 48.035,238.339 47.875 C 238.344 47.630,238.397 47.646,238.672 47.976 C 238.861 48.203,239.104 48.329,239.247 48.274 C 239.565 48.152,239.398 47.710,238.985 47.578 C 238.810 47.523,238.667 47.338,238.667 47.168 C 238.667 46.997,238.479 46.710,238.250 46.530 C 238.021 46.350,237.833 46.118,237.833 46.015 C 237.833 45.912,237.571 45.573,237.250 45.261 C 236.929 44.949,236.667 44.617,236.667 44.522 C 236.667 44.427,236.292 43.974,235.833 43.516 C 235.375 43.058,235.000 42.630,235.000 42.566 C 235.000 42.503,234.456 41.900,233.792 41.227 C 233.127 40.554,232.499 39.918,232.397 39.814 C 231.651 39.054,230.855 38.333,230.762 38.333 C 230.701 38.333,230.276 37.958,229.817 37.500 C 229.359 37.042,228.910 36.667,228.820 36.667 C 228.729 36.667,228.393 36.404,228.072 36.083 C 227.751 35.762,227.408 35.500,227.310 35.500 C 227.212 35.500,226.984 35.313,226.804 35.083 C 226.623 34.854,226.336 34.667,226.166 34.667 C 225.995 34.667,225.809 34.521,225.753 34.342 C 225.696 34.163,225.490 33.967,225.296 33.905 C 225.101 33.843,224.791 33.652,224.606 33.480 C 224.422 33.307,224.180 33.167,224.070 33.167 C 223.959 33.167,223.826 33.054,223.773 32.917 C 223.720 32.779,223.525 32.667,223.339 32.667 C 223.152 32.667,223.000 32.592,223.000 32.500 C 223.000 32.408,222.887 32.333,222.750 32.333 C 222.612 32.333,222.500 32.260,222.500 32.170 C 222.500 32.080,222.313 31.959,222.083 31.902 C 221.854 31.844,221.667 31.730,221.667 31.649 C 221.667 31.567,221.535 31.500,221.373 31.500 C 221.212 31.500,220.991 31.357,220.881 31.182 C 220.772 31.007,220.454 30.813,220.175 30.752 C 219.895 30.690,219.667 30.571,219.667 30.487 C 219.667 30.402,219.517 30.333,219.333 30.333 C 219.150 30.333,219.000 30.258,219.000 30.167 C 219.000 30.075,218.893 30.000,218.762 30.000 C 218.631 30.000,218.425 29.906,218.304 29.792 C 218.182 29.677,217.896 29.497,217.667 29.392 C 216.554 28.881,216.017 28.667,215.850 28.667 C 215.749 28.667,215.667 28.609,215.667 28.539 C 215.667 28.365,214.410 27.833,213.999 27.833 C 213.816 27.833,213.667 27.777,213.667 27.707 C 213.667 27.519,212.842 27.195,212.042 27.069 C 211.652 27.008,211.333 26.910,211.333 26.853 C 211.333 26.630,209.049 25.833,208.411 25.833 C 208.185 25.833,208.000 25.758,208.000 25.667 C 208.000 25.575,207.817 25.500,207.593 25.500 C 207.369 25.500,207.144 25.431,207.091 25.346 C 207.039 25.262,206.510 25.141,205.915 25.077 C 205.320 25.013,204.833 24.895,204.833 24.814 C 204.833 24.733,204.571 24.667,204.250 24.667 C 203.929 24.667,203.667 24.592,203.667 24.500 C 203.667 24.408,203.307 24.333,202.867 24.333 C 202.427 24.333,201.993 24.260,201.903 24.170 C 201.813 24.080,200.973 23.956,200.037 23.895 C 199.100 23.833,198.333 23.720,198.333 23.642 C 198.333 23.564,197.621 23.500,196.750 23.500 C 195.806 23.500,195.167 23.433,195.167 23.333 C 195.167 23.227,193.753 23.167,191.260 23.167 C 188.835 23.167,187.314 23.230,187.250 23.333 " stroke="none" fill="#0ccbfc" fill-rule="evenodd"></path><path id="path3" d="M355.167 69.583 C 355.167 69.904,355.092 70.167,355.000 70.167 C 354.907 70.167,354.832 70.627,354.831 71.208 C 354.827 73.077,354.918 73.000,352.719 73.000 C 350.381 73.000,350.333 73.033,350.333 74.645 C 350.333 75.288,350.258 75.860,350.167 75.917 C 350.075 75.973,350.000 76.353,350.000 76.760 L 350.000 77.500 352.011 77.500 L 354.022 77.500 353.904 79.667 L 353.786 81.833 356.143 81.833 L 358.500 81.833 358.500 81.417 C 358.500 81.188,358.575 81.000,358.667 81.000 C 358.762 81.000,358.833 80.500,358.833 79.833 C 358.833 79.167,358.905 78.667,359.000 78.667 C 359.092 78.667,359.167 78.404,359.167 78.083 L 359.167 77.500 361.250 77.500 L 363.333 77.500 363.333 76.417 C 363.333 75.806,363.406 75.333,363.500 75.333 C 363.595 75.333,363.667 74.833,363.667 74.167 L 363.667 73.000 361.667 73.000 L 359.667 73.000 359.667 72.417 C 359.667 72.096,359.742 71.833,359.833 71.833 C 359.927 71.833,360.000 71.372,360.000 70.783 C 360.000 70.206,360.083 69.650,360.185 69.548 C 360.623 69.111,360.113 69.000,357.657 69.000 L 355.167 69.000 355.167 69.583 " stroke="none" fill="#fcb404" fill-rule="evenodd"></path><path id="path4" d="M238.339 47.875 C 238.336 48.035,238.221 48.167,238.083 48.167 C 237.946 48.167,237.833 48.224,237.833 48.294 C 237.833 48.364,237.533 48.551,237.167 48.710 C 236.142 49.154,236.334 50.981,237.512 52.000 C 237.565 52.046,237.753 52.346,237.929 52.667 C 238.106 52.987,238.293 53.288,238.345 53.333 C 238.398 53.379,238.491 53.553,238.553 53.719 C 238.614 53.885,238.745 53.972,238.843 53.911 C 238.941 53.850,239.166 53.932,239.344 54.093 C 239.521 54.254,239.667 54.307,239.667 54.212 C 239.667 54.117,240.098 53.825,240.625 53.563 C 241.152 53.301,241.645 53.011,241.721 52.918 C 241.811 52.808,241.888 52.822,241.943 52.958 C 242.029 53.169,242.500 53.256,242.500 53.061 C 242.500 52.945,241.823 51.800,241.675 51.667 C 241.625 51.621,241.440 51.302,241.265 50.958 C 241.091 50.615,240.884 50.333,240.807 50.333 C 240.730 50.333,240.664 50.202,240.661 50.042 C 240.655 49.710,239.939 48.833,239.675 48.833 C 239.579 48.833,239.500 48.686,239.500 48.505 C 239.500 48.282,239.420 48.208,239.250 48.273 C 239.103 48.329,238.863 48.206,238.672 47.976 C 238.397 47.646,238.344 47.630,238.339 47.875 " stroke="none" fill="#97fcfc" fill-rule="evenodd"></path></g></svg>